<?xml version="1.0" encoding="UTF-8" standalone="no"?>
<!-- Created with Inkscape (http://www.inkscape.org/) -->

<svg
   xmlns:dc="http://purl.org/dc/elements/1.1/"
   xmlns:cc="http://creativecommons.org/ns#"
   xmlns:rdf="http://www.w3.org/1999/02/22-rdf-syntax-ns#"
   xmlns:svg="http://www.w3.org/2000/svg"
   xmlns="http://www.w3.org/2000/svg"
   xmlns:sodipodi="http://sodipodi.sourceforge.net/DTD/sodipodi-0.dtd"
   xmlns:inkscape="http://www.inkscape.org/namespaces/inkscape"
   width="3840"
   height="3920"
   id="svg2"
   version="1.1"
   inkscape:version="0.91 r13725"
   sodipodi:docname="brand.svg"
   inkscape:export-filename="/media/Mokush/Dev/buiac.github.io/artwork/logo-space.png"
   inkscape:export-xdpi="426.06345"
   inkscape:export-ydpi="426.06345">
  <defs
     id="defs4" />
  <sodipodi:namedview
     id="base"
     pagecolor="#ffffff"
     bordercolor="#666666"
     borderopacity="1.0"
     inkscape:pageopacity="0.0"
     inkscape:pageshadow="2"
     inkscape:zoom="0.35355339"
     inkscape:cx="2940.5535"
     inkscape:cy="541.83343"
     inkscape:document-units="px"
     inkscape:current-layer="text2990"
     showgrid="true"
     inkscape:window-width="1876"
     inkscape:window-height="1051"
     inkscape:window-x="44"
     inkscape:window-y="0"
     inkscape:window-maximized="1"
     fit-margin-top="0"
     fit-margin-left="0"
     fit-margin-right="0"
     fit-margin-bottom="0">
    <inkscape:grid
       type="xygrid"
       id="grid3005"
       empspacing="5"
       visible="true"
       enabled="true"
       snapvisiblegridlinesonly="true"
       originx="480"
       originy="2560" />
  </sodipodi:namedview>
  <metadata
     id="metadata7">
    <rdf:RDF>
      <cc:Work
         rdf:about="">
        <dc:format>image/svg+xml</dc:format>
        <dc:type
           rdf:resource="http://purl.org/dc/dcmitype/StillImage" />
        <dc:title />
      </cc:Work>
    </rdf:RDF>
  </metadata>
  <g
     inkscape:label="Layer 1"
     inkscape:groupmode="layer"
     id="layer1"
     transform="translate(480,307.63782)">
    <g
       style="font-style:normal;font-weight:normal;font-size:246.04397583px;line-height:125%;font-family:Sans;letter-spacing:0px;word-spacing:0px;fill:#000000;fill-opacity:1;stroke:none"
       id="text2990">
      <path
         style="font-style:normal;font-variant:normal;font-weight:bold;font-stretch:normal;font-size:medium;line-height:125%;font-family:'Futura Book';-inkscape-font-specification:'Futura Book, Bold';letter-spacing:0px;word-spacing:0px;fill:#000000;fill-opacity:1;stroke:none;stroke-width:1px;stroke-linecap:butt;stroke-linejoin:miter;stroke-opacity:1"
         d="m 2519.9246,2816.7419 -2.2697,6.0555 0,233.1925 62.1347,0 0,-239.248 -59.865,0 z m 163.6826,0 -92.0422,239.248 65.6374,0 60.2121,-166.8724 60.2122,166.8724 64.0322,0 -90.1835,-239.248 -67.8682,0 z m 157.4923,48.462 c -14.5915,20.8938 -21.9764,44.7163 -22.1395,71.4714 -0.2065,35.9491 12.6035,66.1126 38.429,90.4918 10.3397,9.3808 21.3876,16.883 33.1407,22.5115 l -49.4302,-184.4747 z m -351.9021,33.5516 -58.705,156.6955 c 12.9613,-4.1138 24.2163,-10.6991 33.7593,-19.7602 11.5698,-11.8797 18.7475,-25.1031 21.5367,-39.6687 2.4793,-14.359 3.6156,-29.2859 3.409,-44.7812 l 0,-52.4854 z"
         id="path4436"
         inkscape:connector-curvature="0" />
      <path
         style="font-style:normal;font-variant:normal;font-weight:bold;font-stretch:normal;font-size:medium;line-height:125%;font-family:'Futura Book';-inkscape-font-specification:'Futura Book, Bold';letter-spacing:0px;word-spacing:0px;fill:#000000;fill-opacity:1;stroke:none;stroke-width:1px;stroke-linecap:butt;stroke-linejoin:miter;stroke-opacity:1"
         d="m 2413.535,2855.4503 0,125.9775 c 0,7.8509 -0.2079,15.442 -0.621,22.7764 -0.6199,7.6443 -2.3234,14.7723 -5.1125,21.3837 -2.7892,6.0947 -7.0253,11.054 -12.7069,14.876 -5.8882,4.0288 -13.7911,6.0441 -23.7081,6.0441 -9.8137,0 -17.5607,-2.0153 -23.2424,-6.0441 -5.6814,-3.822 -9.9176,-8.7813 -12.7068,-14.876 -2.6858,-6.6114 -4.3893,-13.7394 -5.1124,-21.3837 -0.8264,-7.3344 -1.2399,-14.9255 -1.2399,-22.7764 l 0,-80.9245 -62.1347,62.1347 0,27.3112 c -0.2066,15.4953 1.0315,30.4222 3.7173,44.7812 2.7891,14.5656 9.9171,27.7892 21.3836,39.6689 10.5368,9.7104 22.8815,16.5785 37.0338,20.6072 13.9457,4.0288 28.0459,6.044 42.3015,6.044 14.359,0 28.615,-2.0152 42.7673,-6.044 0.9462,-0.2693 1.8822,-0.5524 2.8108,-0.8471 l 58.7052,-156.6955 0,-82.0136 z m -168.5643,129.1673 -110.0808,110.0806 37.2873,0 c 22.8297,0.2067 42.8174,-4.6485 59.9655,-14.5655 17.2514,-10.1236 26.1372,-27.4792 26.6537,-52.0651 0.2219,-18.643 -4.3915,-33.1215 -13.8257,-43.45 z"
         id="path4423"
         inkscape:connector-curvature="0"
         sodipodi:nodetypes="cscccscccsccccccsccccccccccc" />
      <path
         style="font-style:normal;font-variant:normal;font-weight:bold;font-stretch:normal;font-size:medium;line-height:125%;font-family:'Futura Book';-inkscape-font-specification:'Futura Book, Bold';letter-spacing:0px;word-spacing:0px;fill:#000000;fill-opacity:1;stroke:none;stroke-width:1px;stroke-linecap:butt;stroke-linejoin:miter;stroke-opacity:1"
         d="m 2098.5483,2834.3721 0,239.2479 58.6298,0 110.0808,-110.0806 c -8.1305,-8.901 -19.8396,-14.7215 -35.1409,-17.4473 l 0,-0.6186 c 17.9744,-10.4336 26.7562,-26.7545 26.3431,-48.9645 -0.2066,-22.6231 -6.6635,-38.6864 -19.3698,-48.1902 -12.9127,-9.2971 -30.1646,-13.9468 -51.7546,-13.9467 z m 190.6902,0 0,107.1876 62.1347,-62.1347 0,-45.0529 z"
         id="path4408"
         inkscape:connector-curvature="0"
         sodipodi:nodetypes="ccccccccscccccc" />
      <path
         style="font-style:normal;font-variant:normal;font-weight:bold;font-stretch:normal;font-size:medium;line-height:125%;font-family:'Futura Book';-inkscape-font-specification:'Futura Book, Bold';letter-spacing:0px;word-spacing:0px;fill:#000000;fill-opacity:1;stroke:none;stroke-width:1px;stroke-linecap:butt;stroke-linejoin:miter;stroke-opacity:1"
         d="m 2953.2236,2844.709 c -35.3293,0.4132 -65.6486,13.3248 -90.9576,38.7371 -4.9111,5.1504 -9.3036,10.5109 -13.1909,16.0772 l 49.4301,184.4748 c 17.368,8.3174 36.2779,12.5403 56.7324,12.6634 9.5038,0 18.5928,-1.1883 27.2701,-3.5642 8.4707,-1.8595 17.666,-4.3898 27.5829,-7.5922 l 0,-74.5333 c -14.1522,16.7347 -32.0231,25.2071 -53.6132,25.4136 -19.7306,-0.2065 -35.279,-6.4557 -46.6422,-18.7486 -11.8797,-11.8797 -17.9232,-27.3241 -18.1299,-46.3316 0.2067,-19.0076 6.1486,-34.7614 17.8217,-47.2609 11.3632,-12.4995 26.7014,-18.8526 46.0188,-19.0592 22.4164,0.2064 40.599,8.9884 54.5448,26.3431 l 0,-74.5335 c -18.1811,-7.8509 -37.1363,-11.8792 -56.867,-12.0857 z"
         id="path4392"
         inkscape:connector-curvature="0" />
      <path
         id="path4416"
         d="m 2966.8611,1982.3786 c -30.2197,0.3534 -56.1541,11.3977 -77.8027,33.1347 -19.9697,20.9418 -30.044,45.9041 -30.2207,74.8867 -0.1767,30.7499 10.7807,56.551 32.8711,77.4043 21.9137,19.8814 47.5389,29.9113 76.875,30.0879 8.1293,0 15.9038,-1.0165 23.3262,-3.0488 7.2456,-1.5905 15.111,-3.7549 23.5937,-6.4941 l 0,-63.7539 c -12.1055,14.3145 -27.3918,21.5615 -45.8594,21.7382 -16.877,-0.1767 -30.1767,-5.5221 -39.8965,-16.0371 -10.1616,-10.1616 -15.331,-23.3723 -15.5078,-39.6308 0.1768,-16.2586 5.2593,-29.734 15.2442,-40.4258 9.7198,-10.6917 22.8397,-16.126 39.3633,-16.3027 19.1744,0.1767 34.7273,7.6884 46.6562,22.5332 l 0,-63.754 c -15.5517,-6.7155 -31.7655,-10.1612 -48.6426,-10.3378 z m -731.7383,5.4336 0,204.6464 82.045,0 c 19.5279,0.1768 36.6249,-3.9762 51.2929,-12.459 14.7564,-8.6594 22.3571,-23.505 22.7989,-44.5351 0.3534,-29.6895 -13.6091,-47.0532 -41.8848,-52.0899 l 0,-0.5292 c 15.3749,-8.9246 22.8866,-22.8851 22.5332,-41.8829 -0.1767,-19.3512 -5.6998,-33.0914 -16.5684,-41.2207 -11.0452,-7.9525 -25.802,-11.9296 -44.2695,-11.9296 l -75.9473,0 z m 163.1114,0 0,115.0468 c -0.1767,13.2543 0.8823,26.0224 3.1797,38.3047 2.3857,12.459 8.4828,23.7701 18.291,33.9317 9.0129,8.306 19.5722,14.1808 31.6777,17.6269 11.9288,3.4461 23.9897,5.1699 36.1836,5.1699 12.2823,0 24.4765,-1.7238 36.582,-5.1699 12.1056,-3.4461 22.5335,-9.3209 31.2813,-17.6269 9.8965,-10.1616 16.0361,-21.4727 18.4219,-33.9317 2.1207,-12.2823 3.0927,-25.0504 2.916,-38.3047 l 0,-115.0468 -53.1485,0 0,107.7578 c 0,6.7155 -0.1778,13.2087 -0.5312,19.4824 -0.5302,6.5387 -1.9873,12.6358 -4.3731,18.291 -2.3858,5.2133 -6.0092,9.4553 -10.8691,12.7246 -5.0366,3.4461 -11.7966,5.1699 -20.2793,5.1699 -8.3944,0 -15.021,-1.7238 -19.8809,-5.1699 -4.8598,-3.2693 -8.4833,-7.5113 -10.8691,-12.7246 -2.2974,-5.6552 -3.7545,-11.7523 -4.373,-18.291 -0.7069,-6.2737 -1.0606,-12.7669 -1.0606,-19.4824 l 0,-107.7578 -53.1484,0 z m 202.875,0 0,204.6464 53.1484,0 0,-204.6464 -53.1484,0 z m 141.9511,0 -78.7304,204.6464 56.4629,0 14.0488,-35.5214 73.2969,0 13.3867,35.5214 56.7285,0 -77.1406,-204.6464 -58.0528,0 z m -448.0605,40.6757 c 6.6492,0.087 12.7574,1.0206 18.3242,2.7989 6.362,2.2974 9.6319,7.9963 9.8086,17.0976 -0.1767,8.306 -3.1818,13.6958 -9.0137,16.1699 -5.8318,2.5625 -12.4585,3.7548 -19.8808,3.5782 l -5.9649,0 0,-39.6289 3.8438,0 c 0.972,-0.022 1.9329,-0.028 2.8828,-0.016 z m 476.5566,22.5469 0.5313,0 21.7363,65.2109 -44.2695,0 22.0019,-65.2109 z m -463.4023,56.4629 c 5.0366,0 9.721,0.6184 14.0508,1.8555 4.5948,0.9719 8.2163,3.0494 10.8672,6.2304 2.9159,3.4461 4.375,8.262 4.375,14.4473 0,5.3901 -1.4591,9.5431 -4.375,12.459 -2.6509,3.0927 -6.2724,5.2571 -10.8672,6.4941 -4.3298,1.3254 -8.8364,2.0772 -13.5196,2.2539 -4.8598,0.3535 -9.3665,0.5293 -13.5195,0.5293 l -6.8926,0 0,-44.0039 5.4336,0 c 4.5948,0 9.4107,-0.089 14.4473,-0.2656 z"
         style="font-style:normal;font-variant:normal;font-weight:bold;font-stretch:normal;font-size:medium;line-height:125%;font-family:'Futura Book';-inkscape-font-specification:'Futura Book,  Bold';letter-spacing:0px;word-spacing:0px;fill:#000000;fill-opacity:1;stroke:none;stroke-width:1px;stroke-linecap:butt;stroke-linejoin:miter;stroke-opacity:1"
         inkscape:connector-curvature="0" />
      <path
         style="opacity:1;fill:#000000;fill-opacity:1;stroke:none;stroke-width:5;stroke-miterlimit:4;stroke-dasharray:none;stroke-opacity:1"
         d="M 1370 1765 A 90 90 0 0 0 1280 1855 A 90 90 0 0 0 1331.6113 1936.2812 L 1451.293 1816.6016 A 90 90 0 0 0 1370 1765 z M 1458.0059 1836.6484 L 1351.5859 1943.0684 A 90 90 0 0 0 1370 1945 A 90 90 0 0 0 1460 1855 A 90 90 0 0 0 1458.0059 1836.6484 z "
         transform="translate(-480,-307.63782)"
         id="path4240" />
      <path
         style="font-variant:normal;font-stretch:normal;font-family:Quicksand;-inkscape-font-specification:Quicksand;fill:#4d4d4d"
         d="m -34.895903,-144.32586 c -5.503636,0 -10.162608,4.659 -10.162608,10.16261 l 0,276.05757 c 0,5.50364 4.228822,10.16261 9.732458,10.16261 l 0.43015,0 1.23672,0 83.397992,0 c 46.569204,0 84.688501,-37.69594 84.688501,-84.688471 0,-37.255369 -24.57321,-68.579841 -58.018355,-80.01046 16.934261,-13.547415 28.390835,-34.303573 28.390835,-57.588175 0,-41.065564 -33.023352,-74.095684 -73.665568,-74.095684 l -64.793405,0 -1.23672,0 z m 10.539027,20.75539 55.491098,0 c 29.211591,0 52.910142,23.705351 52.910142,53.340294 0,28.788239 -23.698551,52.479992 -52.910142,52.479992 l -4.301612,0 0,21.1855373 22.906199,0 c 35.138579,0 63.509751,28.7945267 63.933081,63.9331057 -0.42333,35.561901 -28.794502,63.933081 -63.933081,63.933081 l -74.095685,0 0,-119.262905 -0.26879,0 0,-32.262259 0.26879,0 0,-103.346846 z"
         id="path2995"
         inkscape:connector-curvature="0" />
      <path
         d="m 211.90709,32.224923 0,0 c 0,66.043579 46.67463,119.809937 112.29488,119.809937 l 0,0 c 66.46693,0 113.29425,-53.766358 113.29425,-119.809937 l 0,-166.379223 0,0 c 0,-5.50364 -4.65694,-10.16057 -10.58392,-10.16057 l 0,0 c -5.50364,0 -10.16057,4.65696 -10.16057,10.16057 l 0,0 0,166.379223 0,0 c 0,54.612954 -37.51346,98.642097 -92.54976,99.065477 l 0,0 C 270.01234,130.86702 232.65158,86.837849 232.65158,32.224895 l 0,-166.379225 0,0 c 0,-5.50361 -4.65696,-10.16057 -10.58392,-10.16057 l 0,0 c -5.50364,0 -10.16057,4.65696 -10.16057,10.16057 l 0,166.379225"
         style="font-variant:normal;font-stretch:normal;font-family:Quicksand;-inkscape-font-specification:Quicksand;fill:#4d4d4d"
         id="path2997"
         inkscape:connector-curvature="0"
         sodipodi:nodetypes="ccccsccccccccccsccccsc" />
      <path
         d="m 546.92764,141.87433 0,0 c 0,5.50363 4.65693,10.16053 10.16054,10.16053 l 0,0 c 5.92702,0 10.58392,-4.6569 10.58392,-10.16053 l 0,-276.02863 0,0 c 0,-5.50361 -4.6569,-10.16057 -10.58392,-10.16057 l 0,0 c -5.50361,0 -10.16054,4.65696 -10.16054,10.16057 l 0,276.02863"
         style="font-variant:normal;font-stretch:normal;font-family:Quicksand;-inkscape-font-specification:Quicksand;fill:#4d4d4d"
         id="path2999"
         inkscape:connector-curvature="0" />
      <path
         style="font-variant:normal;font-stretch:normal;font-family:Quicksand;-inkscape-font-specification:Quicksand;fill:#4d4d4d"
         d="m 772.68509,-143.03538 c -4.23355,0 -8.46917,2.5347 -10.1626,6.34493 L 659.65958,138.07662 c -2.11679,5.08028 0.8345,11.43337 5.91475,13.55016 1.27006,0 2.971,0.43015 3.81771,0.43015 4.23358,0 8.03905,-2.5415 9.73246,-6.77508 l 93.99077,-249.81758 93.5606,249.81758 c 1.69344,4.23358 5.92226,6.77508 9.73246,6.77508 1.27006,0 2.12427,-0.43015 3.81771,-0.43015 5.08025,-2.11679 7.60136,-8.46988 5.48457,-13.55016 L 782.84773,-136.69045 c -1.27009,-3.81026 -5.5057,-6.34493 -10.16264,-6.34493 z"
         id="path3001"
         inkscape:connector-curvature="0"
         sodipodi:nodetypes="scccscccscccs" />
      <path
         d="m 918.5722,2.5899233 0,0 c 0,82.5545167 69.00725,149.4449367 154.1019,149.4449367 l 0,0 c 36.4086,0 69.8539,-12.27735 95.6786,-32.17511 l 0,0 c 4.6569,-3.38685 5.5036,-11.00727 1.2701,-14.81747 l 0,0 c -2.9635,-5.080284 -9.7372,-5.926989 -14.8175,-2.54014 l 0,0 c -22.0145,18.62764 -50.8029,28.78826 -82.1312,28.78826 l 0,0 c -74.08738,0 -133.35741,-57.999994 -133.35741,-128.7004767 l 0,0 c 0,-72.3939423 59.27003,-130.3939133 133.35741,-130.3939133 l 0,0 c 31.3283,0 60.1167,11.0073 82.9779,28.788267 l 0,0 c 4.2336,3.386846 11.0073,2.963494 14.3941,-2.116757 l 0,0 c 3.8102,-3.81023 2.9635,-11.00731 -1.6934,-14.8175 l 0,0 c -25.8247,-19.89776 -59.27,-32.59847 -95.6786,-32.59847 l 0,0 C 987.57945,-148.1251 918.5722,-81.657996 918.5722,2.589895"
         style="font-variant:normal;font-stretch:normal;font-family:Quicksand;-inkscape-font-specification:Quicksand;fill:#4d4d4d"
         id="path3003"
         inkscape:connector-curvature="0" />
      <rect
         style="opacity:0.42127662;fill:#f60000;fill-opacity:1;stroke:none"
         id="rect3011"
         width="42.485344"
         height="42.485344"
         x="-135.18813"
         y="-145.37677"
         ry="5.6647124"
         rx="5.6647124" />
      <rect
         y="-145.37677"
         x="-320.30276"
         height="42.485344"
         width="127.45603"
         id="rect3013"
         style="opacity:0.42127662;fill:#f60000;fill-opacity:1;stroke:none"
         rx="5.6647124"
         ry="5.6647124" />
      <text
         xml:space="preserve"
         style="font-style:normal;font-weight:normal;font-size:127.52136993px;line-height:125%;font-family:sans-serif;letter-spacing:0px;word-spacing:0px;fill:#000000;fill-opacity:1;stroke:none;stroke-width:1px;stroke-linecap:butt;stroke-linejoin:miter;stroke-opacity:1"
         x="36.016483"
         y="1317.0874"
         id="text4177"
         sodipodi:linespacing="125%"><tspan
           sodipodi:role="line"
           id="tspan4179"
           x="36.016483"
           y="1317.0874"
           style="font-style:normal;font-variant:normal;font-weight:900;font-stretch:normal;font-size:573.84613037px;font-family:Raleway;-inkscape-font-specification:'Raleway Heavy'">Buiac</tspan></text>
      <path
         style="font-style:normal;font-variant:normal;font-weight:900;font-stretch:normal;font-size:573.84613037px;line-height:125%;font-family:Raleway;-inkscape-font-specification:'Raleway Heavy';letter-spacing:0px;word-spacing:0px;fill:#000000;fill-opacity:1;stroke:none;stroke-width:1px;stroke-linecap:butt;stroke-linejoin:miter;stroke-opacity:1"
         d="M 664.79102 1830.1523 L 561.10352 1933.8379 L 561.10352 2237.582 L 722.99023 2237.582 C 742.88356 2237.582 761.62861 2235.6694 779.22656 2231.8438 C 797.20707 2227.6356 812.89151 2221.3227 826.28125 2212.9062 C 839.671 2204.4899 850.19247 2193.7787 857.84375 2180.7715 C 865.49503 2167.3818 869.32031 2151.5057 869.32031 2133.1426 C 869.32031 2104.4503 862.43442 2081.6883 848.66211 2064.8555 C 835.27237 2047.6401 816.90868 2035.5892 793.57227 2028.7031 C 808.83866 2017.1435 815.35358 2012.3945 821.55664 1998.5039 C 831.50331 1980.906 834.96094 1953.72 834.96094 1934.5918 C 834.96094 1921.5846 832.66694 1908.9607 828.07617 1896.7188 C 823.86796 1884.094 817.74674 1872.9996 809.71289 1863.4355 C 801.67904 1853.4888 791.92419 1845.4551 780.44727 1839.334 C 768.97034 1833.213 756.15292 1830.1523 741.99805 1830.1523 L 664.79102 1830.1523 z "
         transform="translate(-480,-307.63782)"
         id="path4194" />
      <g
         id="g4183"
         transform="translate(174.28571,0)">
        <path
           style="font-variant:normal;font-stretch:normal;font-family:Quicksand;-inkscape-font-specification:Quicksand;fill:#000000"
           d="m 1627.9612,507.10271 c -5.5036,0 -10.1626,4.659 -10.1626,10.16261 l 0,276.05757 c 0,5.50364 4.2288,10.16261 9.7325,10.16261 l 0.4301,0 1.2367,0 83.398,0 c 46.5692,0 84.6885,-37.69594 84.6885,-84.68847 0,-37.25537 -24.5732,-68.57985 -58.0183,-80.01046 16.9342,-13.54742 28.3908,-34.30358 28.3908,-57.58818 0,-41.06556 -33.0233,-74.09568 -73.6656,-74.09568 l -64.7934,0 -1.2367,0 z m 10.539,20.75539 55.4911,0 c 29.2116,0 52.9102,23.70535 52.9102,53.34029 0,28.78824 -23.6986,52.47999 -52.9102,52.47999 l -4.3016,0 0,21.18554 22.9062,0 c 35.1386,0 63.5098,28.79453 63.9331,63.93311 -0.4233,35.5619 -28.7945,63.93308 -63.9331,63.93308 l -74.0957,0 0,-119.26291 -0.2688,0 0,-32.26226 0.2688,0 0,-103.34684 z"
           id="path4167"
           inkscape:connector-curvature="0" />
        <path
           d="m 1874.7642,683.65349 0,0 c 0,66.04358 46.6746,119.80994 112.2949,119.80994 l 0,0 c 66.4669,0 113.2942,-53.76636 113.2942,-119.80994 l 0,-166.37922 0,0 c 0,-5.50364 -4.6569,-10.16057 -10.5839,-10.16057 l 0,0 c -5.5036,0 -10.1606,4.65696 -10.1606,10.16057 l 0,0 0,166.37922 0,0 c 0,54.61295 -37.5134,98.6421 -92.5497,99.06548 l 0,0 c -54.1896,-0.42338 -91.5504,-44.45255 -91.5504,-99.06551 l 0,-166.37922 0,0 c 0,-5.50361 -4.657,-10.16057 -10.5839,-10.16057 l 0,0 c -5.5037,0 -10.1606,4.65696 -10.1606,10.16057 l 0,166.37922"
           style="font-variant:normal;font-stretch:normal;font-family:Quicksand;-inkscape-font-specification:Quicksand;fill:#000000"
           id="path4169"
           inkscape:connector-curvature="0"
           sodipodi:nodetypes="ccccsccccccccccsccccsc" />
        <path
           d="m 2209.7848,793.3029 0,0 c 0,5.50363 4.6569,10.16053 10.1605,10.16053 l 0,0 c 5.927,0 10.5839,-4.6569 10.5839,-10.16053 l 0,-276.02863 0,0 c 0,-5.50361 -4.6569,-10.16057 -10.5839,-10.16057 l 0,0 c -5.5036,0 -10.1605,4.65696 -10.1605,10.16057 l 0,276.02863"
           style="font-variant:normal;font-stretch:normal;font-family:Quicksand;-inkscape-font-specification:Quicksand;fill:#000000"
           id="path4171"
           inkscape:connector-curvature="0" />
        <path
           style="font-variant:normal;font-stretch:normal;font-family:Quicksand;-inkscape-font-specification:Quicksand;fill:#000000"
           d="m 2435.5422,508.39319 c -4.2335,0 -8.4692,2.5347 -10.1626,6.34493 l -102.8629,274.76707 c -2.1168,5.08028 0.8345,11.43337 5.9147,13.55016 1.2701,0 2.971,0.43015 3.8178,0.43015 4.2335,0 8.039,-2.5415 9.7324,-6.77508 l 93.9908,-249.81758 93.5606,249.81758 c 1.6934,4.23358 5.9222,6.77508 9.7324,6.77508 1.2701,0 2.1243,-0.43015 3.8178,-0.43015 5.0802,-2.11679 7.6013,-8.46988 5.4845,-13.55016 L 2445.7048,514.73812 c -1.27,-3.81026 -5.5057,-6.34493 -10.1626,-6.34493 z"
           id="path4173"
           inkscape:connector-curvature="0"
           sodipodi:nodetypes="scccscccscccs" />
        <path
           d="m 2581.4293,654.01849 0,0 c 0,82.55452 69.0073,149.44494 154.1019,149.44494 l 0,0 c 36.4086,0 69.8539,-12.27735 95.6786,-32.17511 l 0,0 c 4.6569,-3.38685 5.5036,-11.00727 1.2701,-14.81747 l 0,0 c -2.9635,-5.08029 -9.7372,-5.92699 -14.8175,-2.54014 l 0,0 c -22.0145,18.62764 -50.8029,28.78826 -82.1312,28.78826 l 0,0 c -74.0874,0 -133.3574,-58 -133.3574,-128.70048 l 0,0 c 0,-72.39394 59.27,-130.39391 133.3574,-130.39391 l 0,0 c 31.3283,0 60.1167,11.0073 82.9779,28.78826 l 0,0 c 4.2336,3.38685 11.0073,2.9635 14.3941,-2.11675 l 0,0 c 3.8102,-3.81023 2.9635,-11.00731 -1.6934,-14.8175 l 0,0 c -25.8247,-19.89776 -59.27,-32.59847 -95.6786,-32.59847 l 0,0 c -85.0946,0.42335 -154.1019,66.89045 -154.1019,151.13834"
           style="font-variant:normal;font-stretch:normal;font-family:Quicksand;-inkscape-font-specification:Quicksand;fill:#000000"
           id="path4175"
           inkscape:connector-curvature="0" />
        <path
           sodipodi:nodetypes="ccccsccccsc"
           inkscape:connector-curvature="0"
           id="path4177"
           style="font-variant:normal;font-stretch:normal;font-family:Quicksand;-inkscape-font-specification:Quicksand;fill:#000000"
           d="m 2362.46,441.62316 0,0 c -5.5037,0 -10.1606,4.6569 -10.1606,10.1605 l 0,0 c 0,5.927 4.6569,10.5839 10.1606,10.5839 l 145.2138,0 0,0 c 5.5036,0 10.1606,-4.6569 10.1606,-10.5839 l 0,0 c 0,-5.5036 -4.657,-10.1605 -10.1606,-10.1605 l -145.2138,0" />
        <circle
           r="10.315673"
           cy="452.26416"
           cx="2220.1973"
           id="path4181"
           style="opacity:1;fill:#000000;fill-opacity:1;stroke:none;stroke-width:5;stroke-miterlimit:4;stroke-dasharray:none;stroke-opacity:1" />
      </g>
      <path
         style="font-style:normal;font-variant:normal;font-weight:900;font-stretch:normal;font-size:573.84613037px;line-height:125%;font-family:Raleway;-inkscape-font-specification:'Raleway Heavy';letter-spacing:0px;word-spacing:0px;fill:#000000;fill-opacity:1;stroke:none;stroke-width:1px;stroke-linecap:butt;stroke-linejoin:miter;stroke-opacity:1"
         d="M 1061.3613 1830.1523 L 956.07227 1935.4414 L 956.07227 2237.582 L 1117.959 2237.582 C 1137.8523 2237.582 1156.5974 2235.6694 1174.1953 2231.8438 C 1192.1758 2227.6356 1207.8622 2221.3227 1221.252 2212.9062 C 1234.6417 2204.4899 1245.1612 2193.7787 1252.8125 2180.7715 C 1260.4638 2167.3818 1264.2891 2151.5057 1264.2891 2133.1426 C 1264.2891 2104.4503 1257.4032 2081.6883 1243.6309 2064.8555 C 1230.2411 2047.6401 1211.8794 2035.5892 1188.543 2028.7031 C 1203.8094 2017.1435 1210.3243 2012.3945 1216.5273 1998.5039 C 1226.474 1980.906 1229.9316 1953.72 1229.9316 1934.5918 C 1229.9316 1921.5846 1227.6357 1908.9607 1223.0449 1896.7188 C 1218.8367 1884.094 1212.7155 1872.9996 1204.6816 1863.4355 C 1196.6478 1853.4888 1186.8929 1845.4551 1175.416 1839.334 C 1163.9391 1833.213 1151.1236 1830.1523 1136.9688 1830.1523 L 1061.3613 1830.1523 z "
         transform="translate(-480,-307.63782)"
         id="path4195" />
      <path
         style="opacity:1;fill:#000000;fill-opacity:1;stroke:none;stroke-width:5;stroke-miterlimit:4;stroke-dasharray:none;stroke-opacity:1"
         d="M 649.94336 1813.0879 L 544.73633 1918.2949 L 556.11914 1929.6797 L 661.32812 1824.4707 L 649.94336 1813.0879 z "
         transform="translate(-480,-307.63782)"
         id="rect4218" />
      <path
         style="opacity:1;fill:#000000;fill-opacity:1;stroke:none;stroke-width:5;stroke-miterlimit:4;stroke-dasharray:none;stroke-opacity:1"
         inkscape:transform-center-x="-10.485729"
         inkscape:transform-center-y="10.839323"
         d="m 470.92639,1518.1513 99.87251,1.1844 -98.3083,97.5157 z"
         id="path4233"
         inkscape:connector-curvature="0"
         sodipodi:nodetypes="cccc" />
      <path
         id="path4236"
         d="m 972.78987,1522.5145 -105.28903,105.2891 0,302.1406 161.88676,0 c 19.8933,0 38.6384,-1.9126 56.2363,-5.7382 17.9805,-4.2082 33.6669,-10.5211 47.0567,-18.9376 13.3897,-8.4163 23.9092,-19.1275 31.5605,-32.1347 7.6513,-13.3897 11.4766,-29.2658 11.4766,-47.6289 0,-28.6923 -6.8859,-51.4543 -20.6582,-68.2871 -13.3898,-17.2154 -31.7515,-29.2663 -55.0879,-36.1524 15.2664,-11.5596 21.7813,-16.3086 27.9843,-30.1992 9.9467,-17.5979 13.4043,-44.7839 13.4043,-63.9121 0,-13.0072 -2.2959,-25.6311 -6.8867,-37.873 -4.2082,-12.6248 -10.3294,-23.7192 -18.3633,-33.2833 -8.0338,-9.9467 -17.7887,-17.9804 -29.2656,-24.1015 -11.4769,-6.121 -24.2924,-9.1817 -38.4472,-9.1817 l -75.60753,0 z"
         style="font-style:normal;font-variant:normal;font-weight:900;font-stretch:normal;font-size:573.84613037px;line-height:125%;font-family:Raleway;-inkscape-font-specification:'Raleway Heavy';letter-spacing:0px;word-spacing:0px;fill:#000000;fill-opacity:1;stroke:none;stroke-width:1px;stroke-linecap:butt;stroke-linejoin:miter;stroke-opacity:1"
         inkscape:connector-curvature="0" />
      <text
         xml:space="preserve"
         style="font-style:normal;font-weight:normal;font-size:59.36542511px;line-height:125%;font-family:sans-serif;letter-spacing:0px;word-spacing:0px;fill:#000000;fill-opacity:1;stroke:none;stroke-width:1px;stroke-linecap:butt;stroke-linejoin:miter;stroke-opacity:1"
         x="-183.33435"
         y="2381.186"
         id="text4305"
         sodipodi:linespacing="125%"><tspan
           sodipodi:role="line"
           id="tspan4307"
           x="-183.33435"
           y="2381.186"
           style="font-style:normal;font-variant:normal;font-weight:bold;font-stretch:normal;font-size:267.14440918px;font-family:'Futura Book';-inkscape-font-specification:'Futura Book, Bold'">Buiac</tspan></text>
      <path
         inkscape:connector-curvature="0"
         id="path4316"
         style="font-style:normal;font-variant:normal;font-weight:bold;font-stretch:normal;font-size:267.14440918px;line-height:125%;font-family:'Futura Book';-inkscape-font-specification:'Futura Book, Bold';letter-spacing:0px;word-spacing:0px;fill:#000000;fill-opacity:1;stroke:none;stroke-width:1px;stroke-linecap:butt;stroke-linejoin:miter;stroke-opacity:1"
         d="m 1055.2493,2272.3781 5.3481,0 q 6.783,0 14.2181,-0.2609 7.4352,0 13.8269,1.8262 6.7829,1.4349 10.6962,6.1308 4.3045,5.0872 4.3045,14.2181 0,7.9569 -4.3045,12.2615 -3.9133,4.5655 -10.6962,6.3917 -6.3917,1.9566 -13.3051,2.2175 -7.1743,0.5217 -13.305,0.5217 l -6.783,0 0,-43.3066 z m 28.4363,83.3522 q 28.8276,0.2609 50.4809,-12.2615 21.7837,-12.7833 22.4359,-43.8284 0.5218,-43.8284 -41.2195,-51.2635 l 0,-0.5218 q 22.6968,-13.1746 22.1751,-41.2196 -0.2609,-28.5667 -16.3052,-40.5673 -16.3052,-11.7397 -43.5675,-11.7397 l -74.7431,0 0,201.4018 80.7434,0 z m -28.4363,-161.3563 3.7828,0 q 11.4789,-0.2608 20.8707,2.7393 9.3918,3.3915 9.6526,16.827 -0.2608,12.2615 -8.87,15.9139 -8.6091,3.7828 -19.5662,3.5219 l -5.8699,0 0,-39.0021 z" />
      <path
         inkscape:connector-curvature="0"
         id="path4318"
         style="font-style:normal;font-variant:normal;font-weight:bold;font-stretch:normal;font-size:267.14440918px;line-height:125%;font-family:'Futura Book';-inkscape-font-specification:'Futura Book, Bold';letter-spacing:0px;word-spacing:0px;fill:#000000;fill-opacity:1;stroke:none;stroke-width:1px;stroke-linecap:butt;stroke-linejoin:miter;stroke-opacity:1"
         d="m 1306.3494,2154.3285 0,106.049 q 0,9.9135 -0.5218,19.1749 -0.7826,9.6527 -4.3045,18.0009 -3.522,7.6961 -10.6963,12.5224 -7.4351,5.0873 -19.9575,5.0873 -12.392,0 -19.5663,-5.0873 -7.1743,-4.8263 -10.6962,-12.5224 -3.3915,-8.3482 -4.3045,-18.0009 -1.0436,-9.2614 -1.0436,-19.1749 l 0,-106.049 -52.3071,0 0,113.2233 q -0.2608,19.5662 3.1306,37.6976 3.522,18.3923 18.001,33.3931 13.305,12.2615 31.1755,17.3487 17.6096,5.0872 35.6106,5.0872 18.1314,0 36.0019,-5.0872 17.8705,-5.0872 30.7842,-17.3487 14.6094,-15.0008 18.1314,-33.3931 3.1306,-18.1314 2.8697,-37.6976 l 0,-113.2233 -52.3071,0 z" />
      <path
         inkscape:connector-curvature="0"
         id="path4320"
         style="font-style:normal;font-variant:normal;font-weight:bold;font-stretch:normal;font-size:267.14440918px;line-height:125%;font-family:'Futura Book';-inkscape-font-specification:'Futura Book, Bold';letter-spacing:0px;word-spacing:0px;fill:#000000;fill-opacity:1;stroke:none;stroke-width:1px;stroke-linecap:butt;stroke-linejoin:miter;stroke-opacity:1"
         d="m 1443.9653,2154.3285 -52.3071,0 0,201.4018 52.3071,0 0,-201.4018 z" />
      <path
         style="font-style:normal;font-variant:normal;font-weight:bold;font-stretch:normal;font-size:267.14440918px;line-height:125%;font-family:'Futura Book';-inkscape-font-specification:'Futura Book, Bold';letter-spacing:0px;word-spacing:0px;fill:#000000;fill-opacity:1;stroke:none;stroke-width:1px;stroke-linecap:butt;stroke-linejoin:miter;stroke-opacity:1"
         d="m 1537.623,2154.3283 -77.4824,201.4024 54.541,0 50.8829,-141.4551 3.1191,8.6699 c 0.7496,1.9984 1.4457,3.9361 2.0879,5.8067 l 45.6758,126.9785 54.2246,0 -75.916,-201.4024 -57.1329,0 z"
         id="path4322"
         inkscape:connector-curvature="0" />
      <path
         inkscape:connector-curvature="0"
         id="path4324"
         style="font-style:normal;font-variant:normal;font-weight:bold;font-stretch:normal;font-size:267.14440918px;line-height:125%;font-family:'Futura Book';-inkscape-font-specification:'Futura Book, Bold';letter-spacing:0px;word-spacing:0px;fill:#000000;fill-opacity:1;stroke:none;stroke-width:1px;stroke-linecap:butt;stroke-linejoin:miter;stroke-opacity:1"
         d="m 1830.9855,2221.8972 0,-62.7424 q -22.9577,-9.9136 -47.872,-10.1744 -44.6111,0.5217 -76.5693,32.6104 -29.4798,30.9146 -29.7407,73.6995 -0.2608,45.3936 32.3496,76.1779 32.3495,29.3493 75.6561,29.6102 12.0006,0 22.9577,-3.0002 10.6962,-2.3479 23.2186,-6.3916 l 0,-62.7424 0,0 q -17.8705,21.1315 -45.1328,21.3924 -24.9143,-0.2609 -39.2629,-15.7834 -15.0008,-15.0008 -15.2617,-39.0021 0.2609,-24.0012 15.0008,-39.7846 14.3486,-15.7835 38.7412,-16.0444 28.3058,0.2609 45.9154,22.1751 l 0,0 z" />
      <rect
         style="opacity:1;fill:none;fill-opacity:1;stroke:#000000;stroke-width:40;stroke-miterlimit:4;stroke-dasharray:none;stroke-opacity:1"
         id="rect4313"
         width="921.15613"
         height="146.32437"
         x="958.11591"
         y="2252.3574" />
      <path
         sodipodi:nodetypes="cccccccsccc"
         inkscape:connector-curvature="0"
         id="path4339"
         style="font-style:normal;font-variant:normal;font-weight:bold;font-stretch:normal;font-size:267.14440918px;line-height:125%;font-family:'Futura Book';-inkscape-font-specification:'Futura Book, Bold';letter-spacing:0px;word-spacing:0px;fill:#000000;fill-opacity:1;stroke:none;stroke-width:1px;stroke-linecap:butt;stroke-linejoin:miter;stroke-opacity:1"
         d="m -28.934606,2833.7344 c 19.2184005,0.1739 36.0453705,-3.9132 50.4809,-12.2615 14.5225,-8.5222 22.00115,-23.1317 22.43596,-43.8284 0.34784,-29.2189 -13.39201,-46.3068 -41.2195495,-51.2636 l 0,-0.5217 c 15.1312295,-8.7831 22.5229195,-22.5229 22.1750695,-41.2196 -0.17392,-19.0445 -5.60899,-32.5669 -16.3051995,-40.5673 -10.87013,-7.8265 -25.3926305,-11.7398 -43.5674905,-11.7398 l -74.743044,0 0,201.4019 z" />
      <path
         sodipodi:nodetypes="cccccccccc"
         inkscape:connector-curvature="0"
         id="path4341"
         style="font-style:normal;font-variant:normal;font-weight:bold;font-stretch:normal;font-size:267.14440918px;line-height:125%;font-family:'Futura Book';-inkscape-font-specification:'Futura Book, Bold';letter-spacing:0px;word-spacing:0px;fill:#000000;fill-opacity:1;stroke:none;stroke-width:1px;stroke-linecap:butt;stroke-linejoin:miter;stroke-opacity:1"
         d="m 57.527984,2696.6402 0,82.5696 c 0.17393,22.0881 7.21777,37.5237 21.13154,46.3068 13.47897,8.6961 30.740736,12.9571 51.785316,12.7832 21.13154,0.1739 38.48027,-4.0871 52.0462,-12.7832 13.73985,-8.7831 20.69673,-24.2187 20.87066,-46.3068 l 0,-82.5696 -48.65472,0 -48.65472,0 z" />
      <path
         inkscape:connector-curvature="0"
         id="path4343"
         style="font-style:normal;font-variant:normal;font-weight:bold;font-stretch:normal;font-size:267.14440918px;line-height:125%;font-family:'Futura Book';-inkscape-font-specification:'Futura Book, Bold';letter-spacing:0px;word-spacing:0px;fill:#000000;fill-opacity:1;stroke:none;stroke-width:1px;stroke-linecap:butt;stroke-linejoin:miter;stroke-opacity:1"
         d="m 272.71581,2696.6402 -48.65472,0 0,137.0942 48.65472,0 0,-137.0942 z M 248.32323,2616.81 q -11.47887,0.2609 -18.91404,7.8265 -8.34826,7.9569 -8.34826,19.4358 0,11.4788 8.34826,18.914 7.43517,8.3483 18.91404,8.3483 11.47886,0 19.56624,-8.3483 7.43517,-7.4352 7.69605,-18.914 -0.26088,-11.4789 -7.69605,-19.4358 -8.08738,-7.5656 -19.56624,-7.8265 l 0,0 z" />
      <path
         sodipodi:nodetypes="cccccccccccccccc"
         inkscape:connector-curvature="0"
         id="path4345"
         style="font-style:normal;font-variant:normal;font-weight:bold;font-stretch:normal;font-size:267.14440918px;line-height:125%;font-family:'Futura Book';-inkscape-font-specification:'Futura Book, Bold';letter-spacing:0px;word-spacing:0px;fill:#000000;fill-opacity:1;stroke:none;stroke-width:1px;stroke-linecap:butt;stroke-linejoin:miter;stroke-opacity:1"
         d="m 449.86256,2696.6402 -48.65472,0 0,13.4355 0,0 c -5.1307,-6.2612 -11.43538,-10.8266 -18.91403,-13.6963 -7.47865,-2.7828 -15.34863,-4.1742 -23.60993,-4.1742 -20.60977,0.3479 -37.04542,7.5656 -49.30693,21.6533 -12.69631,13.8269 -19.13143,30.9147 -19.30535,51.2636 0.17392,20.088 6.696,37.0889 19.56624,51.0027 12.60935,14.4355 29.13196,21.8272 49.56781,22.175 8.2613,0 16.21824,-1.6957 23.87081,-5.0872 7.30473,-3.2175 13.17461,-8.1308 17.60962,-14.7399 l 0.52176,0 0,15.2617 48.65472,0 z" />
      <path
         inkscape:connector-curvature="0"
         id="path4347"
         style="font-style:normal;font-variant:normal;font-weight:bold;font-stretch:normal;font-size:267.14440918px;line-height:125%;font-family:'Futura Book';-inkscape-font-specification:'Futura Book, Bold';letter-spacing:0px;word-spacing:0px;fill:#000000;fill-opacity:1;stroke:none;stroke-width:1px;stroke-linecap:butt;stroke-linejoin:miter;stroke-opacity:1"
         d="m 573.17815,2741.2513 0,-41.0891 q -14.7399,-7.957 -32.08863,-7.957 -32.87129,0.2609 -54.26371,20.4794 -22.17508,20.088 -22.43596,54.0028 0.26088,31.5669 22.17507,51.0027 21.13154,20.088 52.30709,20.6097 8.87003,0 17.74006,-2.2175 8.4787,-1.5653 16.56608,-5.609 l 0,-41.0891 0,0 q -10.43533,9.3918 -24.39258,9.3918 -15.26167,0 -24.26214,-9.6527 -9.91356,-9.1309 -9.91356,-24.0012 0,-14.7399 9.91356,-24.1317 9.00047,-9.0005 23.47949,-9.2614 7.17429,0 13.69637,2.6089 6.13075,3.0001 11.47886,6.9134 l 0,0 z" />
      <path
         d="m -50.176765,2616.81 c -7.65258,0.1739 -13.95726,2.7828 -18.91404,7.8265 -5.56551,5.3046 -8.34826,11.7832 -8.34826,19.4358 0,7.6525 2.78275,13.9572 8.34826,18.914 4.95678,5.5655 11.26146,8.3483 18.91404,8.3483 7.65257,0 14.174649,-2.7828 19.566239,-8.3483 4.95678,-4.9568 7.52213,-11.2615 7.69605,-18.914 -0.17392,-7.6526 -2.73927,-14.1312 -7.69605,-19.4358 -5.39159,-5.0437 -11.913669,-7.6526 -19.566239,-7.8265 z"
         style="font-style:normal;font-variant:normal;font-weight:bold;font-stretch:normal;font-size:267.14440918px;line-height:125%;font-family:'Futura Book';-inkscape-font-specification:'Futura Book, Bold';letter-spacing:0px;word-spacing:0px;fill:#ff2a2a;fill-opacity:1;stroke:none;stroke-width:1px;stroke-linecap:butt;stroke-linejoin:miter;stroke-opacity:1"
         id="path4372"
         inkscape:connector-curvature="0"
         sodipodi:nodetypes="ccscsccccc" />
      <g
         id="g4448"
         transform="translate(1026.3431,-429.50461)">
        <path
           style="font-style:normal;font-variant:normal;font-weight:bold;font-stretch:normal;font-size:medium;line-height:125%;font-family:'Futura Book';-inkscape-font-specification:'Futura Book, Bold';letter-spacing:0px;word-spacing:0px;fill:#000000;fill-opacity:1;stroke:none;stroke-width:1px;stroke-linecap:butt;stroke-linejoin:miter;stroke-opacity:1"
           d="m 1654.7176,2845.858 -1.9414,5.1796 0,199.4668 53.1484,0 0,-204.6464 -51.207,0 z m 140.0097,0 -78.7304,204.6464 56.4629,0 14.0488,-35.5214 73.2969,0 13.3867,35.5214 56.7285,0 -77.1406,-204.6464 -58.0528,0 z m 134.7149,41.4531 c -12.4812,17.872 -18.798,38.2491 -18.9375,61.1347 -0.1767,30.7499 10.7807,56.551 32.8711,77.4043 8.8443,8.0241 18.2943,14.4414 28.3476,19.2559 l -42.2812,-157.7949 z m -106.2188,21.7695 0.5313,0 21.7363,65.2109 -44.2695,0 22.0019,-65.2109 z m -194.789,6.9297 -50.2149,134.0332 c 11.0869,-3.5188 20.7141,-9.1517 28.877,-16.9023 9.8965,-10.1616 16.0361,-21.4727 18.4219,-33.9317 2.1207,-12.2823 3.0927,-25.0504 2.916,-38.3047 l 0,-44.8945 z"
           id="path4440"
           inkscape:connector-curvature="0" />
        <path
           style="font-style:normal;font-variant:normal;font-weight:bold;font-stretch:normal;font-size:medium;line-height:125%;font-family:'Futura Book';-inkscape-font-specification:'Futura Book, Bold';letter-spacing:0px;word-spacing:0px;fill:#000000;fill-opacity:1;stroke:none;stroke-width:1px;stroke-linecap:butt;stroke-linejoin:miter;stroke-opacity:1"
           d="m 1548.4157,2879.7991 0,107.7578 c 0,6.7155 -0.1778,13.2087 -0.5312,19.4824 -0.5302,6.5387 -1.9873,12.6358 -4.3731,18.291 -2.3858,5.2133 -6.0092,9.4553 -10.8691,12.7246 -5.0366,3.4461 -11.7966,5.1699 -20.2793,5.1699 -8.3944,0 -15.021,-1.7238 -19.8809,-5.1699 -4.8598,-3.2693 -8.4833,-7.5113 -10.8691,-12.7246 -2.2974,-5.6552 -3.7545,-11.7523 -4.373,-18.291 -0.7069,-6.2737 -1.0606,-12.7669 -1.0606,-19.4824 l 0,-69.2207 -53.1484,53.1484 0,23.3613 c -0.1767,13.2543 0.8823,26.0224 3.1797,38.3047 2.3857,12.459 8.4828,23.7701 18.291,33.9317 9.0129,8.306 19.5722,14.1808 31.6777,17.6269 11.9288,3.4461 23.9897,5.1699 36.1836,5.1699 12.2823,0 24.4765,-1.7238 36.582,-5.1699 0.8094,-0.2304 1.61,-0.4725 2.4043,-0.7246 l 50.2149,-134.0332 0,-70.1523 -53.1485,0 z m 77.4903,0 0,5.1796 1.9414,-5.1796 -1.9414,0 z m -221.6758,110.4863 -94.1602,94.1601 31.8946,0 c 19.5279,0.1768 36.6249,-3.9762 51.2929,-12.459 14.7564,-8.6594 22.3571,-23.505 22.7989,-44.5351 0.1898,-15.9467 -3.7564,-28.3313 -11.8262,-37.166 z"
           id="path4442"
           inkscape:connector-curvature="0" />
        <path
           style="font-style:normal;font-variant:normal;font-weight:bold;font-stretch:normal;font-size:medium;line-height:125%;font-family:'Futura Book';-inkscape-font-specification:'Futura Book, Bold';letter-spacing:0px;word-spacing:0px;fill:#000000;fill-opacity:1;stroke:none;stroke-width:1px;stroke-linecap:butt;stroke-linejoin:miter;stroke-opacity:1"
           d="m 1272.6476,2851.5148 0,204.6464 50.1504,0 94.1602,-94.1601 c -6.9546,-7.6137 -16.9702,-12.5924 -30.0586,-14.9239 l 0,-0.5292 c 15.3749,-8.9246 22.8866,-22.8851 22.5332,-41.8829 -0.1767,-19.3512 -5.6998,-33.0914 -16.5684,-41.2207 -11.0452,-7.9525 -25.802,-11.9297 -44.2695,-11.9296 l -75.9473,0 z m 163.1114,0 0,91.6855 53.1484,-53.1484 0,-38.5371 -53.1484,0 z m -103.2344,40.6757 c 6.6492,0.087 12.7574,1.0206 18.3242,2.7989 6.362,2.2974 9.6319,7.9963 9.8086,17.0976 -0.1767,8.306 -3.1818,13.6958 -9.0137,16.1699 -5.8318,2.5625 -12.4585,3.7548 -19.8808,3.5782 l -5.9649,0 0,-39.6289 3.8438,0 c 0.972,-0.022 1.9329,-0.028 2.8828,-0.016 z m 13.1543,79.0098 c 5.0366,0 9.721,0.6184 14.0508,1.8555 4.5948,0.9719 8.2163,3.0494 10.8672,6.2304 2.9159,3.4461 4.375,8.262 4.375,14.4473 0,5.3901 -1.4591,9.5431 -4.375,12.459 -2.6509,3.0927 -6.2724,5.2571 -10.8672,6.4941 -4.3298,1.3254 -8.8364,2.0772 -13.5196,2.2539 -4.8598,0.3535 -9.3665,0.5293 -13.5195,0.5293 l -6.8926,0 0,-44.0039 5.4336,0 c 4.5948,0 9.4107,-0.089 14.4473,-0.2656 z"
           id="path4444"
           inkscape:connector-curvature="0" />
        <path
           style="font-style:normal;font-variant:normal;font-weight:bold;font-stretch:normal;font-size:medium;line-height:125%;font-family:'Futura Book';-inkscape-font-specification:'Futura Book, Bold';letter-spacing:0px;word-spacing:0px;fill:#000000;fill-opacity:1;stroke:none;stroke-width:1px;stroke-linecap:butt;stroke-linejoin:miter;stroke-opacity:1"
           d="m 2038.327,2870.1229 c -30.2197,0.3534 -56.1541,11.3977 -77.8027,33.1347 -4.2009,4.4055 -7.9581,8.9907 -11.2832,13.752 l 42.2812,157.7949 c 14.8562,7.1145 31.0312,10.7267 48.5274,10.832 8.1293,0 15.9038,-1.0165 23.3262,-3.0488 7.2456,-1.5905 15.111,-3.7549 23.5937,-6.4941 l 0,-63.7539 c -12.1055,14.3145 -27.3918,21.5615 -45.8594,21.7382 -16.877,-0.1767 -30.1767,-5.5221 -39.8965,-16.0371 -10.1616,-10.1616 -15.331,-23.3723 -15.5078,-39.6308 0.1768,-16.2586 5.2593,-29.734 15.2442,-40.4258 9.7198,-10.6917 22.8397,-16.126 39.3633,-16.3027 19.1744,0.1765 34.7273,7.6884 46.6562,22.5332 l 0,-63.754 c -15.5517,-6.7155 -31.7655,-10.1612 -48.6426,-10.3378 z"
           id="path4446"
           inkscape:connector-curvature="0" />
      </g>
      <path
         inkscape:connector-curvature="0"
         id="path4458"
         d="m 2519.9246,3229.6923 -2.2697,6.0555 0,233.1925 62.1347,0 0,-239.248 -59.865,0 z m 163.6826,0 -92.0422,239.248 65.6374,0 60.2121,-166.8724 60.2122,166.8724 64.0322,0 -90.1835,-239.248 -67.8682,0 z m 157.4923,48.462 c -14.5915,20.8938 -21.9764,44.7163 -22.1395,71.4714 -0.2065,35.9491 12.6035,66.1126 38.429,90.4918 10.3397,9.3808 21.3876,16.883 33.1407,22.5115 l -49.4302,-184.4747 z m -351.9021,33.5516 -58.705,156.6955 c 12.9613,-4.1138 24.2163,-10.6991 33.7593,-19.7602 11.5698,-11.8797 18.7475,-25.1031 21.5367,-39.6687 2.4793,-14.359 3.6156,-29.2859 3.409,-44.7812 l 0,-52.4854 z"
         style="font-style:normal;font-variant:normal;font-weight:bold;font-stretch:normal;font-size:medium;line-height:125%;font-family:'Futura Book';-inkscape-font-specification:'Futura Book, Bold';letter-spacing:0px;word-spacing:0px;fill:#ff6600;fill-opacity:1;stroke:none;stroke-width:1px;stroke-linecap:butt;stroke-linejoin:miter;stroke-opacity:1" />
      <path
         sodipodi:nodetypes="cscccscccsccccccsccccccccccc"
         inkscape:connector-curvature="0"
         id="path4460"
         d="m 2413.535,3268.4007 0,125.9775 c 0,7.8509 -0.2079,15.442 -0.621,22.7764 -0.6199,7.6443 -2.3234,14.7723 -5.1125,21.3837 -2.7892,6.0947 -7.0253,11.054 -12.7069,14.876 -5.8882,4.0288 -13.7911,6.0441 -23.7081,6.0441 -9.8137,0 -17.5607,-2.0153 -23.2424,-6.0441 -5.6814,-3.822 -9.9176,-8.7813 -12.7068,-14.876 -2.6858,-6.6114 -4.3893,-13.7394 -5.1124,-21.3837 -0.8264,-7.3344 -1.2399,-14.9255 -1.2399,-22.7764 l 0,-80.9245 -62.1347,62.1347 0,27.3112 c -0.2066,15.4953 1.0315,30.4222 3.7173,44.7812 2.7891,14.5656 9.9171,27.7892 21.3836,39.6689 10.5368,9.7104 22.8815,16.5785 37.0338,20.6072 13.9457,4.0288 28.0459,6.044 42.3015,6.044 14.359,0 28.615,-2.0152 42.7673,-6.044 0.9462,-0.2693 1.8822,-0.5524 2.8108,-0.8471 l 58.7052,-156.6955 0,-82.0136 z m -168.5643,129.1673 -110.0808,110.0806 37.2873,0 c 22.8297,0.2067 42.8174,-4.6485 59.9655,-14.5655 17.2514,-10.1236 26.1372,-27.4792 26.6537,-52.0651 0.2219,-18.643 -4.3915,-33.1215 -13.8257,-43.45 z"
         style="font-style:normal;font-variant:normal;font-weight:bold;font-stretch:normal;font-size:medium;line-height:125%;font-family:'Futura Book';-inkscape-font-specification:'Futura Book, Bold';letter-spacing:0px;word-spacing:0px;fill:#d45500;fill-opacity:1;stroke:none;stroke-width:1px;stroke-linecap:butt;stroke-linejoin:miter;stroke-opacity:1" />
      <path
         sodipodi:nodetypes="ccccccccscccccc"
         inkscape:connector-curvature="0"
         id="path4462"
         d="m 2098.5483,3247.3225 0,239.2479 58.6298,0 110.0808,-110.0806 c -8.1305,-8.901 -19.8396,-14.7215 -35.1409,-17.4473 l 0,-0.6186 c 17.9744,-10.4336 26.7562,-26.7545 26.3431,-48.9645 -0.2066,-22.6231 -6.6635,-38.6864 -19.3698,-48.1902 -12.9127,-9.2971 -30.1646,-13.9468 -51.7546,-13.9467 z m 190.6902,0 0,107.1876 62.1347,-62.1347 0,-45.0529 z"
         style="font-style:normal;font-variant:normal;font-weight:bold;font-stretch:normal;font-size:medium;line-height:125%;font-family:'Futura Book';-inkscape-font-specification:'Futura Book, Bold';letter-spacing:0px;word-spacing:0px;fill:#002255;fill-opacity:1;stroke:none;stroke-width:1px;stroke-linecap:butt;stroke-linejoin:miter;stroke-opacity:1" />
      <path
         inkscape:connector-curvature="0"
         id="path4464"
         d="m 2953.2236,3257.6594 c -35.3293,0.4132 -65.6486,13.3248 -90.9576,38.7371 -4.9111,5.1504 -9.3036,10.5109 -13.1909,16.0772 l 49.4301,184.4748 c 17.368,8.3174 36.2779,12.5403 56.7324,12.6634 9.5038,0 18.5928,-1.1883 27.2701,-3.5642 8.4707,-1.8595 17.666,-4.3898 27.5829,-7.5922 l 0,-74.5333 c -14.1522,16.7347 -32.0231,25.2071 -53.6132,25.4136 -19.7306,-0.2065 -35.279,-6.4557 -46.6422,-18.7486 -11.8797,-11.8797 -17.9232,-27.3241 -18.1299,-46.3316 0.2067,-19.0076 6.1486,-34.7614 17.8217,-47.2609 11.3632,-12.4995 26.7014,-18.8526 46.0188,-19.0592 22.4164,0.2064 40.599,8.9884 54.5448,26.3431 l 0,-74.5335 c -18.1811,-7.8509 -37.1363,-11.8792 -56.867,-12.0857 z"
         style="font-style:normal;font-variant:normal;font-weight:bold;font-stretch:normal;font-size:medium;line-height:125%;font-family:'Futura Book';-inkscape-font-specification:'Futura Book, Bold';letter-spacing:0px;word-spacing:0px;fill:#ff7f2a;fill-opacity:1;stroke:none;stroke-width:1px;stroke-linecap:butt;stroke-linejoin:miter;stroke-opacity:1" />
    </g>
  </g>
</svg>
