<?xml version="1.0" encoding="UTF-8" standalone="no"?>
<!-- Created with Inkscape (http://www.inkscape.org/) -->

<svg
   xmlns:dc="http://purl.org/dc/elements/1.1/"
   xmlns:cc="http://creativecommons.org/ns#"
   xmlns:rdf="http://www.w3.org/1999/02/22-rdf-syntax-ns#"
   xmlns:svg="http://www.w3.org/2000/svg"
   xmlns="http://www.w3.org/2000/svg"
   xmlns:sodipodi="http://sodipodi.sourceforge.net/DTD/sodipodi-0.dtd"
   xmlns:inkscape="http://www.inkscape.org/namespaces/inkscape"
   width="6240"
   height="5800"
   id="svg2"
   version="1.1"
   inkscape:version="0.91 r13725"
   sodipodi:docname="brand.svg"
   inkscape:export-filename="/media/Mokush/Dev/buiac.github.io/artwork/logo-space.png"
   inkscape:export-xdpi="426.06345"
   inkscape:export-ydpi="426.06345">
  <defs
     id="defs4" />
  <sodipodi:namedview
     id="base"
     pagecolor="#ffffff"
     bordercolor="#666666"
     borderopacity="1.0"
     inkscape:pageopacity="0.0"
     inkscape:pageshadow="2"
     inkscape:zoom="0.1767767"
     inkscape:cx="1438.1956"
     inkscape:cy="2285.3606"
     inkscape:document-units="px"
     inkscape:current-layer="layer1"
     showgrid="true"
     inkscape:window-width="1876"
     inkscape:window-height="1051"
     inkscape:window-x="44"
     inkscape:window-y="0"
     inkscape:window-maximized="1"
     fit-margin-top="0"
     fit-margin-left="0"
     fit-margin-right="0"
     fit-margin-bottom="0"
     showguides="false">
    <inkscape:grid
       type="xygrid"
       id="grid3005"
       empspacing="5"
       visible="true"
       enabled="true"
       snapvisiblegridlinesonly="true"
       originx="1760"
       originy="3840" />
  </sodipodi:namedview>
  <metadata
     id="metadata7">
    <rdf:RDF>
      <cc:Work
         rdf:about="">
        <dc:format>image/svg+xml</dc:format>
        <dc:type
           rdf:resource="http://purl.org/dc/dcmitype/StillImage" />
        <dc:title></dc:title>
      </cc:Work>
    </rdf:RDF>
  </metadata>
  <g
     inkscape:label="Layer 1"
     inkscape:groupmode="layer"
     id="layer1"
     transform="translate(1760,907.63776)">
    <path
       style="font-style:normal;font-variant:normal;font-weight:bold;font-stretch:normal;font-size:medium;line-height:125%;font-family:'Futura Book';-inkscape-font-specification:'Futura Book, Bold';letter-spacing:0px;word-spacing:0px;fill:#ff6600;fill-opacity:1;stroke:none;stroke-width:1px;stroke-linecap:butt;stroke-linejoin:miter;stroke-opacity:1"
       d="m 461.252,3292.7223 0,101.4804 c 2.7997,0.2048 5.6981,0.01 8.4277,0.6172 2.4598,0.5477 4.6416,1.9624 6.9726,2.9199 8.0007,3.2868 3.1986,0.985 10.6348,4.8926 0.5877,0.4788 1.0977,1.0734 1.7637,1.4356 1.9381,1.0542 2.877,0.549 4.9883,1.2812 3.1526,1.0934 5.5138,2.6223 7.0547,5.625 3.6208,3.8903 7.5025,7.7501 10.8808,11.834 0.7812,0.9444 1.4233,2.0097 2.0899,3.0508 -0.1266,-1.6897 -0.2525,-3.2734 -0.3868,-5.4727 0.3949,-1.6728 1.0997,-3.2174 1.961,-4.6972 -0.6519,-1.908 -1.2934,-3.8198 -1.9004,-5.7422 -4.5826,-14.5133 -2.5191,-8.8936 -6.334,-23.1641 -0.974,-3.6433 -2.0655,-7.2555 -3.0977,-10.8828 -4.2338,-15.0097 -2.3904,-9.0476 -7.7929,-25.4844 -3.8716,-11.779 -8.8298,-24.6751 -10.2129,-37.0781 -0.7614,-6.8275 0.1082,-13.7532 -0.1231,-20.6152 l -24.9257,0 z"
       id="path4674"
       inkscape:connector-curvature="0" />
    <path
       style="font-style:normal;font-variant:normal;font-weight:bold;font-stretch:normal;font-size:medium;line-height:125%;font-family:'Futura Book';-inkscape-font-specification:'Futura Book, Bold';letter-spacing:0px;word-spacing:0px;fill:#ff6600;fill-opacity:1;stroke:none;stroke-width:1px;stroke-linecap:butt;stroke-linejoin:miter;stroke-opacity:1"
       d="m 498.1211,3285.7223 c 1.5139,3.3446 3.734,8.963 7.0137,18.2304 2.3002,6.4995 2.7697,13.5188 4.5996,20.1661 1.4874,5.4034 3.584,10.6217 5.3418,15.9433 5.3012,16.0498 3.7212,11.0458 7.9375,25.9551 1.0303,3.6206 2.1196,7.2266 3.0918,10.8633 3.4518,12.9127 2.3835,10.4603 5.5175,20.5117 0.1129,-0.2372 0.2296,-0.473 0.3321,-0.7148 5.9293,-13.985 4.6434,-29.6596 9.3828,-43.9376 2.2548,-8.3434 3.2857,-13.4948 7.0019,-21.4863 1.3869,-2.9824 14.4072,-26.1273 15.2012,-27.5722 3.0849,-5.6142 5.4126,-11.6975 9.1524,-16.8985 0.2604,-0.3621 0.5403,-0.708 0.8125,-1.0605 l -75.3848,0 z"
       id="path4672"
       inkscape:connector-curvature="0" />
    <path
       style="font-style:normal;font-variant:normal;font-weight:bold;font-stretch:normal;font-size:medium;line-height:125%;font-family:'Futura Book';-inkscape-font-specification:'Futura Book, Bold';letter-spacing:0px;word-spacing:0px;fill:#ff6600;fill-opacity:1;stroke:none;stroke-width:1px;stroke-linecap:butt;stroke-linejoin:miter;stroke-opacity:1"
       d="m 594.7734,3264.2223 c -0.4359,2.0245 -0.9567,4.0244 -1.6757,5.9668 -2.243,6.0591 -6.1194,11.3804 -9.2305,17.0429 -0.7123,1.2965 -13.825,24.6153 -15.2051,27.5821 -3.0359,6.5258 -4.2554,12.292 -6.0801,19.1718 -0.9264,4.0881 -1.8529,8.1756 -2.7793,12.2637 -0.7127,4.7349 -1.1602,9.5175 -2.1367,14.2051 -1.2184,5.8487 -3.8016,11.4232 -4.4394,17.3633 -0.6891,6.4165 1.9788,13.0728 0.4961,19.3535 -0.45,1.9059 -1.2836,3.6607 -2.2618,5.3594 0.8996,3.0832 1.6067,6.2214 2.4161,9.33 0.4321,7.6586 1.5296,15.2329 1.9042,22.8946 0.0742,1.5227 -0.3376,3.1118 0.0997,4.5722 9.4077,11.7404 11.4131,18.0249 9.4824,21.8457 1.4717,0.801 2.2505,1.2782 2.6387,1.4903 13.1749,-32.3816 -3.6565,-22.8398 32.0605,-57.0137 l 0,-6.3359 c -0.4881,0.1527 -0.8958,0.2856 -1.5859,0.4883 -0.5364,0.1574 1.0571,-0.3635 1.5859,-0.545 l 0,0.057 c 2.6883,-0.841 3.0863,-1.1691 7.6309,-3.1797 l 0.7089,1.416 c 18.6753,-18.3655 36.6637,-37.4623 54.9551,-56.1816 4.9604,-4.9901 9.4789,-10.4605 14.8809,-14.9688 5.548,-4.6303 12.2182,-7.8352 17.8613,-12.3223 -4.4097,-13.0474 -11.53,-23.2505 -21.3633,-30.6054 -17.8227,-12.8323 -41.6341,-19.25 -71.4336,-19.25 l -8.5293,0 z"
       id="path4681"
       inkscape:connector-curvature="0" />
    <path
       style="font-style:normal;font-variant:normal;font-weight:bold;font-stretch:normal;font-size:medium;line-height:125%;font-family:'Futura Book';-inkscape-font-specification:'Futura Book, Bold';letter-spacing:0px;word-spacing:0px;fill:#ff6600;fill-opacity:1;stroke:none;stroke-width:1px;stroke-linecap:butt;stroke-linejoin:miter;stroke-opacity:1"
       d="m 504.3398,3514.066 c -0.7373,0.054 -1.5992,0.1874 -3.5918,0.3789 -0.1536,-0.094 -0.3013,-0.1991 -0.4531,-0.2968 -4.2128,3.7501 -13.6088,4.5102 -21.2597,8.2734 -5.8881,2.9857 -9.0358,10.239 -15.127,12.7851 -6.4175,2.6825 -13.964,0.6842 -20.75,2.211 -44.1478,9.9325 1.0574,5.0669 -25.9062,7.3222 l 0,100.7051 50.623,0 c -0.5944,-2.3012 -1.2503,-4.5953 -1.7266,-6.9101 5.5828,-39.2942 -1.4949,7.8522 5.461,-30.6094 0.9999,-5.5286 1.2797,-11.1827 2.4863,-16.6699 4.1022,-18.6552 11.9534,-36.1024 19.0098,-53.7442 4.1861,-8.3676 7.2968,-14.253 10.9414,-22.7187 0.105,-0.2523 0.1915,-0.4792 0.2929,-0.7266 z"
       id="path4670"
       inkscape:connector-curvature="0" />
    <path
       style="font-style:normal;font-variant:normal;font-weight:bold;font-stretch:normal;font-size:medium;line-height:125%;font-family:'Futura Book';-inkscape-font-specification:'Futura Book, Bold';letter-spacing:0px;word-spacing:0px;fill:#ff6600;fill-opacity:1;stroke:none;stroke-width:1px;stroke-linecap:butt;stroke-linejoin:miter;stroke-opacity:1"
       d="m 709.5742,3338.0445 c -3.7647,6.0063 -6.5134,12.6933 -10.8144,18.3321 -4.2488,5.5702 -9.8774,9.9378 -14.8164,14.9062 -17.7143,18.1285 -35.1372,36.6254 -53.1836,54.459 2.1735,1.6686 2.101,1.5898 6.6562,0.666 0.6055,-0.1228 1.6181,0.043 1.7676,-0.5566 0.1792,-0.718 -1.6432,-1.3374 -1.1563,-1.8946 0.3499,-0.4003 1.0023,-0.608 1.7168,-0.7089 l -0.1543,-0.5176 c -1.1028,-0.2105 -2.5098,-0.4899 -4.3281,-0.8711 3.896,-2.3504 5.4214,-3.6672 9.5274,-4.9297 1.7279,-0.5313 3.5298,-0.7886 5.2812,-1.2363 2.9416,-0.7518 3.3943,-1.0013 6.7793,-1.3789 1.006,0.079 2.0135,0.1589 3.0195,0.2383 l -0.5078,4.5996 c 11.9935,-0.6893 24.1159,0.4179 36.1231,1.2871 0.9954,0.8981 1.8545,2.0164 2.8008,2.9941 11.1701,-13.2838 16.5722,-30.2612 16.1875,-50.9453 -0.1194,-13.069 -1.7568,-24.5464 -4.8985,-34.4434 z"
       id="path4668"
       inkscape:connector-curvature="0" />
    <path
       style="font-style:normal;font-variant:normal;font-weight:bold;font-stretch:normal;font-size:medium;line-height:125%;font-family:'Futura Book';-inkscape-font-specification:'Futura Book, Bold';letter-spacing:0px;word-spacing:0px;fill:#ff6600;fill-opacity:1;stroke:none;stroke-width:1px;stroke-linecap:butt;stroke-linejoin:miter;stroke-opacity:1"
       d="m 440.752,3392.8336 0,114.8906 c 2.9616,-2.0748 4.7774,-3.3688 5.8593,-4.1504 -4.3175,3.266 -13.198,10.71 16.291,-5.0742 5.7248,-3.0642 9.6711,-9.0834 15.6661,-11.5781 0.2483,-0.1033 0.5025,-0.1852 0.7558,-0.2715 2.5514,-11.9439 5.2565,-23.8551 10.0254,-35.1758 0.7761,-2.7728 1.4177,-4.9523 1.9922,-6.8769 l -1.4844,0.6367 c -10.6408,-23.3911 3.3896,10.4926 -3,-17.4785 -0.4743,-2.076 -2.493,-3.4587 -3.8691,-5.084 -3.1055,-3.6675 -6.843,-7.4131 -10.1563,-10.9707 -0.998,2.373 -1.3945,-3.8455 -2.8125,-3.4277 -0.2865,0.084 0.7775,0.6389 0.4981,0.7441 -0.5383,0.2028 -1.1442,-0.1472 -1.7012,-0.291 -1.1561,-0.2987 -2.3517,-0.5216 -3.4297,-1.0352 -1.5829,-0.7542 -2.9935,-1.825 -4.4902,-2.7383 -3.7787,-3.1338 -12.5154,-4.0025 -15.8145,-6.8496 -1.721,-1.4852 -3.0308,-3.3726 -4.33,-5.2695 z"
       id="path4666"
       inkscape:connector-curvature="0" />
    <path
       style="font-style:normal;font-variant:normal;font-weight:bold;font-stretch:normal;font-size:medium;line-height:125%;font-family:'Futura Book';-inkscape-font-specification:'Futura Book, Bold';letter-spacing:0px;word-spacing:0px;fill:#ff6600;fill-opacity:1;stroke:none;stroke-width:1px;stroke-linecap:butt;stroke-linejoin:miter;stroke-opacity:1"
       d="m 652.373,3428.0543 c -3.0694,-0.029 -6.1334,0.031 -9.1875,0.2402 l -0.6269,5.6739 c 0.4536,-0.1134 0.9017,-0.2606 1.3672,-0.2852 0.4136,-0.022 -0.8003,0.2067 -1.1992,0.3184 -0.0588,0.016 -0.1171,0.034 -0.1758,0.051 l -0.01,0.084 c -0.0301,-0.019 -0.0596,-0.038 -0.0898,-0.057 -1.0576,0.2979 -2.1134,0.6029 -3.17,0.9043 -0.5674,0.059 -1.1528,0.027 -1.7031,0.1777 -0.9096,0.2489 -1.703,0.9316 -2.6426,1.0117 -0.2913,0.025 0.2177,-0.5429 0.3262,-0.8144 -2.101,0.2794 -4.1923,0.6527 -6.2949,0.916 -1.1657,0.4156 -3.2699,0.3021 -2.4434,0.2461 0.8169,-0.055 1.6312,-0.1444 2.4434,-0.2461 0.354,-0.1262 0.631,-0.2956 0.7012,-0.5371 0.2634,-0.9065 -1.6279,-1.1354 -2.5703,-1.1895 -1.0967,-0.063 -2.101,0.6625 -3.1817,0.8594 -9.0695,1.6525 -2.9395,-1.0087 -12.0644,4.836 l 0,-2.6231 c -2.8526,1.2941 -6.216,2.7538 -8.6661,3.3067 -1.6748,0.3778 -3.4157,0.3615 -5.123,0.5429 l 0,-0.2168 c -6.0689,5.6593 -12.2403,11.2072 -18.5391,16.6153 l 3.5313,2.3535 2.4375,-4.2637 c 3.4868,3.0203 6.683,6.2314 9.6094,9.625 l 1.6367,-7.3691 c 11.2134,3.6219 20.4709,10.1448 28.6035,18.5976 3.2555,3.3837 5.9132,7.3074 9.123,10.7344 11.1356,11.8888 14.0943,13.4279 27.4786,24.2246 13.007,9.0762 25.8129,18.3066 39.3828,26.5508 7.3778,4.4822 15.3508,7.9785 22.5254,12.7793 0.8918,0.5967 1.7538,1.2442 2.5976,1.9199 2.6009,-8.8249 4.0215,-18.6683 4.25,-29.543 0.5702,-47.9076 -21.9616,-75.9254 -67.5879,-84.0527 l 0,-0.8555 c 4.9024,-2.8456 9.3014,-6.0138 13.2129,-9.4941 -7.9759,-0.2694 -15.9826,-0.9451 -23.9512,-1.0215 z"
       id="path4664"
       inkscape:connector-curvature="0" />
    <path
       style="font-style:normal;font-variant:normal;font-weight:bold;font-stretch:normal;font-size:medium;line-height:125%;font-family:'Futura Book';-inkscape-font-specification:'Futura Book, Bold';letter-spacing:0px;word-spacing:0px;fill:#ff6600;fill-opacity:1;stroke:none;stroke-width:1px;stroke-linecap:butt;stroke-linejoin:miter;stroke-opacity:1"
       d="m 583.3516,3447.0758 c -0.1538,0.1503 -0.3071,0.301 -0.461,0.4512 l 0.461,0.9218 0,-1.373 z"
       id="path4662"
       inkscape:connector-curvature="0" />
    <path
       style="font-style:normal;font-variant:normal;font-weight:bold;font-stretch:normal;font-size:medium;line-height:125%;font-family:'Futura Book';-inkscape-font-specification:'Futura Book, Bold';letter-spacing:0px;word-spacing:0px;fill:#ff6600;fill-opacity:1;stroke:none;stroke-width:1px;stroke-linecap:butt;stroke-linejoin:miter;stroke-opacity:1"
       d="m 505.2266,3454.2906 -0.2774,0.1192 c -1.5478,4.8866 -2.5064,9.9738 -3.8847,14.9179 -4.2971,10.0935 -6.8702,20.6669 -9.1778,31.3125 2.456,-0.1 4.844,-0.4065 6.9961,-1.4902 7.559,-3.8061 12.0746,-6.5126 14.6367,-8.457 -0.1502,-0.487 -0.2617,-0.8295 -0.623,-2.1133 -0.5352,-0.8749 -1.0517,-1.7006 -1.5586,-2.5215 -1.8455,0.1231 -2.297,0.2558 -0.0781,-0.1269 -1.8095,-2.9351 -3.4012,-5.6997 -4.4825,-9.3809 -0.3858,-1.3135 -0.015,-2.7399 -0.08,-4.1074 -0.2894,-6.0766 -1.1328,-12.0873 -1.4707,-18.1524 z"
       id="path4660"
       inkscape:connector-curvature="0" />
    <path
       style="font-style:normal;font-variant:normal;font-weight:bold;font-stretch:normal;font-size:medium;line-height:125%;font-family:'Futura Book';-inkscape-font-specification:'Futura Book, Bold';letter-spacing:0px;word-spacing:0px;fill:#ff6600;fill-opacity:1;stroke:none;stroke-width:1px;stroke-linecap:butt;stroke-linejoin:miter;stroke-opacity:1"
       d="m 548.4414,3472.9098 c -0.2385,0.1458 -0.4766,0.2915 -0.7031,0.459 -2.9676,2.1935 -3.9045,7.3147 -5.0684,10.4902 -1.0223,2.7888 -2.0743,5.5694 -3.2461,8.2988 -3.8824,9.043 -6.8608,14.6507 -11.332,23.5977 -6.7539,17.0475 -14.3747,33.8651 -18.2891,51.8808 -1.0958,5.0433 -1.2876,10.2464 -2.1992,15.3262 -7.0067,39.0474 -0.2316,-6.6717 -5.4531,30.5547 -0.9226,1.8391 -1.967,3.6296 -2.9922,5.4277 l 75.9844,0 c 3.4883,0.032 6.9203,-0.038 10.3125,-0.1777 -1.7961,-5.4642 -4.353,-10.716 -5.7012,-16.3106 -1.6471,-6.8348 -4.5491,-33.5489 -5.3926,-40.8027 -1.333,-19.448 -1.8583,-39.5623 -7.9433,-58.2949 -3.7797,-11.6358 -9.8279,-21.6988 -17.9766,-30.4492 z"
       id="path4658"
       inkscape:connector-curvature="0" />
    <path
       style="font-style:normal;font-variant:normal;font-weight:bold;font-stretch:normal;font-size:medium;line-height:125%;font-family:'Futura Book';-inkscape-font-specification:'Futura Book, Bold';letter-spacing:0px;word-spacing:0px;fill:#ff6600;fill-opacity:1;stroke:none;stroke-width:1px;stroke-linecap:butt;stroke-linejoin:miter;stroke-opacity:1"
       d="m 600.9531,3516.8746 c 5.6213,7.5152 10.0087,15.874 13.1407,25.1387 6.7256,19.8959 7.4184,41.1909 8.8496,61.9121 -0.7144,13.5414 5.3362,26.5398 5.3027,39.9844 -0.0152,5.9884 -1.9308,11.8373 -2.7539,17.7695 26.4192,-1.3628 49.8947,-7.9688 70.418,-19.8379 13.5037,-7.9243 23.2896,-19.0634 29.3652,-33.4082 -1.5883,-0.4503 -3.1505,-0.9669 -4.6621,-1.6094 -8.145,-3.4618 -15.5197,-8.5195 -23.0821,-13.1172 -14.0344,-8.5328 -26.8166,-17.7881 -40.2578,-27.1894 -14.3296,-11.6173 -16.9833,-12.8737 -28.9121,-25.627 -2.905,-3.1058 -5.2875,-6.6735 -8.2011,-9.7714 -5.6186,-5.9741 -11.8659,-10.9048 -19.2071,-14.2442 z"
       id="path4412"
       inkscape:connector-curvature="0" />
    <path
       inkscape:connector-curvature="0"
       id="path4301"
       d="m 2324.8765,4545.5098 -13.5362,7.7341 0,9.4552 c -0.3238,24.2877 1.6145,47.6857 5.8243,70.192 4.3716,22.8302 15.5451,43.556 33.518,62.1763 16.5156,15.2202 35.8638,25.9855 58.0464,32.3002 21.8587,6.3147 43.9594,9.473 66.3039,9.473 22.5065,0 44.8511,-3.1583 67.0337,-9.473 22.1825,-6.3147 41.2913,-17.08 57.3211,-32.3002 18.1345,-18.6203 29.3856,-39.3461 33.7575,-62.1763 0.6331,-3.6671 1.1907,-7.3665 1.7122,-11.081 l -32.4998,6.5009 -63.7355,-31.8678 c -1.4012,7.739 -3.5589,15.1177 -6.512,22.1176 -4.3718,9.553 -11.0096,17.3245 -19.9151,23.3153 -9.229,6.3147 -21.6181,9.4752 -37.1621,9.4752 -15.3821,0 -27.5246,-3.1605 -36.4301,-9.4752 -8.9053,-5.9908 -15.5434,-13.7623 -19.9151,-23.3153 -3.4467,-8.484 -5.8442,-17.5208 -7.2284,-27.0902 l -41.9573,20.9797 -44.6255,-66.9405 z m -293.3084,2.9211 -19.1189,14.3392 0,164.114 150.3405,0 c 35.7835,0.3238 67.1128,-7.2854 93.9908,-22.8295 27.0401,-15.8678 40.9679,-43.0717 41.7776,-81.608 0.2622,-22.0283 -3.78,-40.3502 -12.119,-54.9723 l -123.5961,70.6268 -36.967,-73.9359 -41.9106,62.8638 -52.3973,-78.5981 z m 748.9166,26.0855 -32.1937,6.4387 0,18.1675 -65.1972,13.0394 0,114.7221 97.3909,0 0,-152.3677 z m 484.3176,7.7451 -99.6133,22.1354 c 9.6692,28.9406 26.4685,54.7109 50.4077,77.3094 40.1553,36.4314 87.1113,54.8107 140.8675,55.1343 14.8964,0 29.1415,-1.8611 42.7425,-5.5849 13.2771,-2.9147 27.6909,-6.8821 43.2349,-11.9016 l 0,-114.9949 -1.2289,-0.4082 c -21.9855,25.2832 -49.5856,38.0953 -82.8055,38.413 -30.9259,-0.3237 -55.2957,-10.12 -73.1064,-29.388 -8.9471,-8.947 -15.7752,-19.1883 -20.4985,-30.7145 z m -313.9977,2.5663 -86.7735,24.7924 -11.2894,-22.5812 -53.8013,139.8451 98.8215,0 53.0427,-142.0563 z m 195.5449,23.7566 -90.1648,20.0349 36.6918,98.2648 98.0653,0 -44.5923,-118.2997 z"
       style="font-style:normal;font-weight:normal;font-size:medium;line-height:125%;font-family:Sans;letter-spacing:0px;word-spacing:0px;fill:#ff6600;fill-opacity:1;fill-rule:evenodd;stroke:none;stroke-width:1px;stroke-linecap:butt;stroke-linejoin:miter;stroke-opacity:1" />
    <path
       sodipodi:nodetypes="ccscccccccccccccscccccccccccccccccccccsccscccccccccccccscccsccsc"
       inkscape:connector-curvature="0"
       id="text4224"
       d="m 2705.1853,463.43075 c -13.3008,0.30226 -24.2589,4.83607 -32.8743,13.60267 -9.6734,9.21989 -14.5091,20.47979 -14.5091,33.78072 0,13.30094 4.8357,24.2591 14.5091,32.87448 0.037,0.0417 0.075,0.0782 0.1112,0.11819 l 45.411,-78.65204 c -3.999,-1.04234 -8.2125,-1.62373 -12.6486,-1.72454 z m -601.2581,26.97782 0,350.05609 140.3373,0 c 33.4034,0.30225 62.6529,-6.80186 87.7434,-21.31199 25.2414,-14.81238 38.2392,-40.20454 38.995,-76.17735 0.6046,-50.78518 -23.2787,-80.48573 -71.6455,-89.10111 l 0,-0.90642 c 26.2995,-15.26568 39.1481,-39.149 38.5436,-71.64544 -0.3022,-33.10113 -9.7481,-56.60276 -28.3391,-70.50821 -18.8932,-13.60319 -44.1362,-20.40557 -75.7259,-20.40557 z m 102.4184,69.57798 c 11.3739,0.14948 21.8245,1.7447 31.3469,4.78654 10.8825,3.92983 16.4743,13.67741 16.7766,29.24551 -0.3023,14.2077 -5.4431,23.42812 -15.4188,27.6602 -9.9757,4.38313 -21.3119,6.42295 -34.0083,6.1207 l -10.201,0 0,-67.78913 6.5755,0 c 1.6627,-0.0382 3.3043,-0.0452 4.9291,-0.0243 z m 175.8224,42.1964 0,143.51145 c 0.3025,38.39119 12.544,65.21953 36.7275,80.48539 23.4278,15.11463 53.4334,22.52065 90.0108,22.2184 36.7286,0.30225 66.8802,-7.10377 90.459,-22.2184 23.8812,-15.26586 35.9736,-42.0942 36.2759,-80.48539 l 0,-46.75194 -62.4457,16.73245 62.4457,-108.15897 0,-5.33299 -84.5657,0 0,127.41375 c 0,7.40619 -0.4544,14.20856 -1.3613,20.40556 -1.2092,6.197 -3.4015,11.56337 -6.5756,16.09788 -5.5923,9.97562 -17.0015,14.96377 -34.2323,14.96377 -16.7772,0 -28.1134,-4.98815 -34.0082,-14.96377 -5.8947,-9.22007 -8.6906,-21.38881 -8.3884,-36.50344 l 0,-127.41375 z m 365.4139,66.76383 -84.5657,22.65971 0,148.85817 26.4108,0 58.1549,-100.72793 z m -518.7327,26.19012 c 8.6154,0 16.6251,1.05815 24.0312,3.17411 7.8595,1.66266 14.0584,5.2148 18.5928,10.65608 4.988,5.89474 7.482,14.13313 7.482,24.71343 0,9.21989 -2.494,16.32087 -7.482,21.30868 -4.5344,5.29006 -10.7333,8.99481 -18.5928,11.11094 -7.4061,2.26717 -15.1141,3.55058 -23.1248,3.85301 -8.3131,0.60451 -16.0209,0.90624 -23.1248,0.90624 l -11.7898,0 0,-75.27093 9.2946,0 c 7.8597,0 16.0982,-0.14948 24.7136,-0.45156 z"
       style="font-style:normal;font-weight:normal;font-size:59.36542511px;line-height:125%;font-family:sans-serif;letter-spacing:0px;word-spacing:0px;fill:#000000;fill-opacity:1;stroke:none;stroke-width:1px;stroke-linecap:butt;stroke-linejoin:miter;stroke-opacity:1" />
    <path
       inkscape:connector-curvature="0"
       id="path4436"
       d="m 2662.2712,3253.6942 -3.126,8.34 0,321.1666 85.5756,0 0,-329.5066 -82.4496,0 z m 225.4334,0 -126.766,329.5066 90.3997,0 82.9277,-229.8266 82.9279,229.8266 88.1889,0 -124.2061,-329.5066 -93.4721,0 z m 216.9078,66.7448 c -20.0963,28.7762 -30.2672,61.586 -30.4919,98.4347 -0.2844,49.5112 17.3583,91.0542 52.9268,124.6307 14.2404,12.9198 29.4562,23.2522 45.6433,31.0042 l -68.0782,-254.0696 z m -484.6606,46.2093 -80.852,215.8103 c 17.8511,-5.6657 33.3521,-14.7354 46.4953,-27.2149 15.9346,-16.3614 25.8202,-34.5735 29.6617,-54.6341 3.4146,-19.7761 4.9796,-40.3343 4.695,-61.6753 l 0,-72.286 z"
       style="font-style:normal;font-variant:normal;font-weight:bold;font-stretch:normal;font-size:medium;line-height:125%;font-family:'Futura Book';-inkscape-font-specification:'Futura Book, Bold';letter-spacing:0px;word-spacing:0px;fill:#000000;fill-opacity:1;stroke:none;stroke-width:1px;stroke-linecap:butt;stroke-linejoin:miter;stroke-opacity:1" />
    <path
       sodipodi:nodetypes="cscccscccsccccccsccccccccccc"
       inkscape:connector-curvature="0"
       id="path4423"
       d="m 2515.7451,3307.0058 0,173.5037 c 0,10.8127 -0.2864,21.2676 -0.8553,31.369 -0.8538,10.5282 -3.1999,20.3453 -7.0413,29.4509 -3.8414,8.394 -9.6756,15.2242 -17.5007,20.4881 -8.1095,5.5487 -18.9939,8.3243 -32.6522,8.3243 -13.516,0 -24.1856,-2.7756 -32.0108,-8.3243 -7.8247,-5.2639 -13.6591,-12.0941 -17.5005,-20.4881 -3.6991,-9.1056 -6.0452,-18.9227 -7.0411,-29.4509 -1.1382,-10.1014 -1.7077,-20.5563 -1.7077,-31.369 l 0,-111.4541 -85.5756,85.5756 0,37.6147 c -0.2846,21.341 1.4206,41.8992 5.1197,61.6753 3.8413,20.0606 13.6584,38.2729 29.4507,54.6344 14.5119,13.3737 31.5138,22.8329 51.0052,28.3814 19.2068,5.5487 38.6265,8.3242 58.2601,8.3242 19.7761,0 39.4103,-2.7755 58.9017,-8.3242 1.3032,-0.3709 2.5923,-0.7608 3.8712,-1.1666 l 80.8523,-215.8104 0,-112.954 z m -232.1568,177.8969 -151.6099,151.6095 51.3543,0 c 31.4424,0.2847 58.9707,-6.4022 82.5881,-20.0604 23.7596,-13.9429 35.9977,-37.846 36.709,-71.7072 0.3057,-25.6763 -6.0482,-45.6169 -19.0415,-59.8419 z"
       style="font-style:normal;font-variant:normal;font-weight:bold;font-stretch:normal;font-size:medium;line-height:125%;font-family:'Futura Book';-inkscape-font-specification:'Futura Book, Bold';letter-spacing:0px;word-spacing:0px;fill:#000000;fill-opacity:1;stroke:none;stroke-width:1px;stroke-linecap:butt;stroke-linejoin:miter;stroke-opacity:1" />
    <path
       sodipodi:nodetypes="ccccccccscccccc"
       inkscape:connector-curvature="0"
       id="path4408"
       d="m 2081.9266,3277.9756 0,329.5065 80.7485,0 151.6098,-151.6096 c -11.1978,-12.259 -27.3243,-20.2753 -48.3981,-24.0295 l 0,-0.8519 c 24.7554,-14.3698 36.8502,-36.8479 36.2812,-67.4369 -0.2845,-31.1578 -9.1773,-53.2812 -26.6772,-66.3704 -17.7841,-12.8045 -41.5445,-19.2083 -71.2795,-19.2082 z m 262.6299,0 0,147.6252 85.5756,-85.5757 0,-62.0495 z"
       style="font-style:normal;font-variant:normal;font-weight:bold;font-stretch:normal;font-size:medium;line-height:125%;font-family:'Futura Book';-inkscape-font-specification:'Futura Book, Bold';letter-spacing:0px;word-spacing:0px;fill:#000000;fill-opacity:1;stroke:none;stroke-width:1px;stroke-linecap:butt;stroke-linejoin:miter;stroke-opacity:1" />
    <path
       inkscape:connector-curvature="0"
       id="path4392"
       d="m 3259.0364,3292.2122 c -48.6576,0.5691 -90.4152,18.3517 -125.2723,53.351 -6.7638,7.0935 -12.8134,14.4763 -18.1672,22.1425 l 68.078,254.0697 c 23.9203,11.4552 49.9641,17.2713 78.1353,17.4408 13.0892,0 25.6071,-1.6366 37.558,-4.9088 11.6663,-2.561 24.3307,-6.0459 37.9888,-10.4565 l 0,-102.6517 c -19.4913,23.0481 -44.1041,34.7168 -73.8393,35.0012 -27.1742,-0.2844 -48.5883,-8.8912 -64.2384,-25.8217 -16.3614,-16.3615 -24.6849,-37.6324 -24.9696,-63.8107 0.2847,-26.1784 8.4682,-47.8754 24.5451,-65.0905 15.6501,-17.2151 36.7748,-25.9649 63.3798,-26.2495 30.8732,0.2843 55.9154,12.3794 75.1224,36.2813 l 0,-102.652 c -25.0401,-10.8127 -51.1463,-16.3607 -78.3206,-16.6451 z"
       style="font-style:normal;font-variant:normal;font-weight:bold;font-stretch:normal;font-size:medium;line-height:125%;font-family:'Futura Book';-inkscape-font-specification:'Futura Book, Bold';letter-spacing:0px;word-spacing:0px;fill:#000000;fill-opacity:1;stroke:none;stroke-width:1px;stroke-linecap:butt;stroke-linejoin:miter;stroke-opacity:1" />
    <path
       inkscape:connector-curvature="0"
       style="font-style:normal;font-variant:normal;font-weight:bold;font-stretch:normal;font-size:medium;line-height:125%;font-family:'Futura Book';-inkscape-font-specification:'Futura Book,  Bold';letter-spacing:0px;word-spacing:0px;fill:#000000;fill-opacity:1;stroke:none;stroke-width:1px;stroke-linecap:butt;stroke-linejoin:miter;stroke-opacity:1"
       d="m 3248.8623,1994.3786 c -48.7631,0.5702 -90.6116,18.3916 -125.5441,53.4669 -32.2236,33.7921 -48.4798,74.0719 -48.7649,120.8389 -0.2851,49.6187 17.396,91.2519 53.0415,124.9012 35.3605,32.0812 76.71,48.2657 124.0473,48.5506 13.1176,0 25.6627,-1.6403 37.6397,-4.9195 11.6916,-2.5666 24.3834,-6.0591 38.0713,-10.4792 l 0,-102.8747 c -19.5336,23.0982 -44.2001,34.7922 -73.9997,35.0773 -27.2331,-0.2851 -48.6939,-8.9106 -64.3779,-25.8779 -16.397,-16.3969 -24.7385,-37.714 -25.0238,-63.949 0.2853,-26.2353 8.4866,-47.9795 24.5985,-65.2321 15.6841,-17.2523 36.8546,-26.0213 63.5174,-26.3064 30.9403,0.2851 56.0368,12.4062 75.2855,36.3601 l 0,-102.8748 c -25.0946,-10.8363 -51.2576,-16.3964 -78.4908,-16.6814 z m -1180.7495,8.7678 0,330.2221 132.3897,0 c 31.5107,0.2852 59.0987,-6.4161 82.7673,-20.1042 23.8113,-13.973 36.076,-37.9282 36.789,-71.8629 0.5702,-47.9076 -21.96,-75.926 -67.5863,-84.0533 l 0,-0.8541 c 24.8093,-14.4009 36.9303,-36.9279 36.3601,-67.5831 -0.2852,-31.2255 -9.1973,-53.397 -26.7352,-66.5147 -17.8227,-12.8323 -41.6347,-19.2498 -71.4342,-19.2498 l -122.5504,0 z m 263.2003,0 0,185.642 c -0.2851,21.3875 1.4236,41.9905 5.1308,61.8094 3.8496,20.1041 13.688,38.356 29.5148,54.7529 14.5435,13.4028 31.5821,22.8825 51.1159,28.4432 19.2486,5.5607 38.7102,8.3423 58.3866,8.3423 19.819,0 39.4958,-2.7816 59.0296,-8.3423 19.5338,-5.5607 36.3605,-15.0404 50.4762,-28.4432 15.9691,-16.3969 25.8762,-34.6488 29.726,-54.7529 3.422,-19.8189 4.9904,-40.4219 4.7053,-61.8094 l 0,-185.642 -85.7617,0 0,173.8804 c 0,10.8363 -0.2869,21.3139 -0.857,31.4373 -0.8556,10.5509 -3.2068,20.3894 -7.0566,29.5147 -3.8498,8.4123 -9.6966,15.2573 -17.5387,20.5327 -8.127,5.5607 -19.0352,8.3424 -32.7231,8.3424 -13.5454,0 -24.2381,-2.7817 -32.0802,-8.3424 -7.8419,-5.2754 -13.6889,-12.1204 -17.5386,-20.5327 -3.7072,-9.1253 -6.0584,-18.9638 -7.0564,-29.5147 -1.1407,-10.1234 -1.7114,-20.601 -1.7114,-31.4373 l 0,-173.8804 -85.7615,0 z m 327.3637,0 0,330.2221 85.7614,0 0,-330.2221 -85.7614,0 z m 229.0555,0 -127.0412,330.2221 91.1099,0 22.6694,-57.3181 118.2735,0 21.6011,57.3181 91.5385,0 -124.4759,-330.2221 -93.6753,0 z m -723.0006,65.6352 c 10.7293,0.1404 20.5856,1.6469 29.5684,4.5163 10.2658,3.7072 15.5422,12.9031 15.8273,27.5891 -0.2851,13.4028 -5.1341,22.1 -14.5446,26.0922 -9.4103,4.1348 -20.1034,6.0587 -32.0801,5.7738 l -9.6252,0 0,-63.9461 6.2025,0 c 1.5685,-0.036 3.119,-0.045 4.6517,-0.026 z m 768.9826,36.3822 0.8572,0 35.0743,105.2257 -71.4344,0 35.5029,-105.2257 z m -747.7565,91.1098 c 8.1272,0 15.686,0.9979 22.6727,2.9941 7.4143,1.5683 13.258,4.9206 17.5355,10.0535 4.7052,5.5607 7.0596,13.3317 7.0596,23.3124 0,8.6977 -2.3544,15.399 -7.0596,20.1042 -4.2775,4.9905 -10.1212,8.4829 -17.5355,10.479 -6.9867,2.1387 -14.2586,3.3518 -21.8155,3.6371 -7.8419,0.5703 -15.1141,0.854 -21.8154,0.854 l -11.1221,0 0,-71.0057 8.7678,0 c 7.4144,0 15.1854,-0.1437 23.3125,-0.4286 z"
       id="path4416" />
    <path
       inkscape:connector-curvature="0"
       id="path4240"
       d="m 1180.2709,-120.90015 a 71.685746,71.685746 0 0 0 -71.6857,71.685745 71.685746,71.685746 0 0 0 41.1088,64.741145 l 95.3275,-95.325789 a 71.685746,71.685746 0 0 0 -64.7506,-41.101101 z m 70.0974,57.068543 -84.7644,84.764409 a 71.685746,71.685746 0 0 0 14.667,1.538535 71.685746,71.685746 0 0 0 71.6858,-71.685742 71.685746,71.685746 0 0 0 -1.5884,-14.617202 z"
       style="font-style:normal;font-weight:normal;font-size:medium;line-height:125%;font-family:Sans;letter-spacing:0px;word-spacing:0px;opacity:1;fill:#000000;fill-opacity:1;stroke:none;stroke-width:5;stroke-miterlimit:4;stroke-dasharray:none;stroke-opacity:1" />
    <path
       inkscape:connector-curvature="0"
       id="path2995"
       d="m -1098.3845,-642.12903 c -5.5036,0 -10.1626,4.659 -10.1626,10.16261 l 0,276.05757 c 0,5.50364 4.2288,10.16261 9.7324,10.16261 l 0.4302,0 1.2367,0 83.398,0 c 46.56921,0 84.68851,-37.69594 84.68851,-84.68848 0,-37.25536 -24.57321,-68.57984 -58.01835,-80.01046 16.93426,-13.54741 28.39083,-34.30357 28.39083,-57.58817 0,-41.06556 -33.02335,-74.09568 -73.66559,-74.09568 l -64.7934,0 -1.2367,0 z m 10.539,20.75539 55.4911,0 c 29.2116,0 52.91016,23.70535 52.91016,53.34029 0,28.78824 -23.69856,52.47999 -52.91016,52.47999 l -4.3016,0 0,21.18554 22.9062,0 c 35.13859,0 63.50976,28.79453 63.93309,63.9331 -0.42333,35.56191 -28.7945,63.93309 -63.93309,63.93309 l -74.0957,0 0,-119.26291 -0.2688,0 0,-32.26226 0.2688,0 0,-103.34684 z"
       style="font-style:normal;font-variant:normal;font-weight:normal;font-stretch:normal;font-size:medium;line-height:125%;font-family:Quicksand;-inkscape-font-specification:Quicksand;letter-spacing:0px;word-spacing:0px;fill:#4d4d4d;fill-opacity:1;stroke:none" />
    <path
       sodipodi:nodetypes="ccccsccccccccccsccccsc"
       inkscape:connector-curvature="0"
       id="path2997"
       style="font-style:normal;font-variant:normal;font-weight:normal;font-stretch:normal;font-size:medium;line-height:125%;font-family:Quicksand;-inkscape-font-specification:Quicksand;letter-spacing:0px;word-spacing:0px;fill:#4d4d4d;fill-opacity:1;stroke:none"
       d="m -851.58151,-465.57825 0,0 c 0,66.04358 46.67463,119.80994 112.29488,119.80994 l 0,0 c 66.46693,0 113.29425,-53.76636 113.29425,-119.80994 l 0,-166.37922 0,0 c 0,-5.50364 -4.65694,-10.16057 -10.58392,-10.16057 l 0,0 c -5.50364,0 -10.16057,4.65696 -10.16057,10.16057 l 0,0 0,166.37922 0,0 c 0,54.61295 -37.51346,98.6421 -92.54976,99.06548 l 0,0 c -54.18963,-0.42338 -91.55039,-44.45256 -91.55039,-99.06551 l 0,-166.37922 0,0 c 0,-5.50361 -4.65696,-10.16057 -10.58392,-10.16057 l 0,0 c -5.50364,0 -10.16057,4.65696 -10.16057,10.16057 l 0,166.37922" />
    <path
       inkscape:connector-curvature="0"
       id="path2999"
       style="font-style:normal;font-variant:normal;font-weight:normal;font-stretch:normal;font-size:medium;line-height:125%;font-family:Quicksand;-inkscape-font-specification:Quicksand;letter-spacing:0px;word-spacing:0px;fill:#4d4d4d;fill-opacity:1;stroke:none"
       d="m -516.56096,-355.92884 0,0 c 0,5.50363 4.65693,10.16053 10.16054,10.16053 l 0,0 c 5.92702,0 10.58392,-4.6569 10.58392,-10.16053 l 0,-276.02863 0,0 c 0,-5.50361 -4.6569,-10.16057 -10.58392,-10.16057 l 0,0 c -5.50361,0 -10.16054,4.65696 -10.16054,10.16057 l 0,276.02863" />
    <path
       sodipodi:nodetypes="scccscccscccs"
       inkscape:connector-curvature="0"
       id="path3001"
       d="m -290.80351,-640.83855 c -4.23355,0 -8.46917,2.5347 -10.1626,6.34493 l -102.86291,274.76707 c -2.11679,5.08028 0.8345,11.43337 5.91475,13.55016 1.27006,0 2.971,0.43015 3.81771,0.43015 4.23358,0 8.03905,-2.5415 9.73246,-6.77508 l 93.99077,-249.81758 93.5606,249.81758 c 1.69344,4.23358 5.92226,6.77508 9.73246,6.77508 1.27006,0 2.12427,-0.43015 3.81771,-0.43015 5.08025,-2.11679 7.60136,-8.46988 5.48457,-13.55016 l -102.86288,-274.76707 c -1.27009,-3.81026 -5.5057,-6.34493 -10.16264,-6.34493 z"
       style="font-style:normal;font-variant:normal;font-weight:normal;font-stretch:normal;font-size:medium;line-height:125%;font-family:Quicksand;-inkscape-font-specification:Quicksand;letter-spacing:0px;word-spacing:0px;fill:#4d4d4d;fill-opacity:1;stroke:none" />
    <path
       inkscape:connector-curvature="0"
       id="path3003"
       style="font-style:normal;font-variant:normal;font-weight:normal;font-stretch:normal;font-size:medium;line-height:125%;font-family:Quicksand;-inkscape-font-specification:Quicksand;letter-spacing:0px;word-spacing:0px;fill:#4d4d4d;fill-opacity:1;stroke:none"
       d="m -144.9164,-495.21325 0,0 c 0,82.55452 69.00725,149.44494 154.1019004,149.44494 l 0,0 c 36.4085996,0 69.8538996,-12.27735 95.6785996,-32.17511 l 0,0 c 4.6569,-3.38685 5.5036,-11.00727 1.2701,-14.81747 l 0,0 c -2.9635,-5.08029 -9.7372,-5.92699 -14.8175,-2.54014 l 0,0 c -22.0145,18.62764 -50.8029,28.78826 -82.1311996,28.78826 l 0,0 c -74.0873804,0 -133.3574104,-58 -133.3574104,-128.70048 l 0,0 c 0,-72.39394 59.27003,-130.39391 133.3574104,-130.39391 l 0,0 c 31.3282996,0 60.1166996,11.0073 82.9778996,28.78826 l 0,0 c 4.2336,3.38685 11.0073,2.9635 14.3941,-2.11675 l 0,0 c 3.8102,-3.81023 2.9635,-11.00731 -1.6934,-14.8175 l 0,0 c -25.8247,-19.89776 -59.27,-32.59847 -95.6785996,-32.59847 l 0,0 C -75.90915,-645.92827 -144.9164,-579.46117 -144.9164,-495.21328" />
    <rect
       rx="5.6647124"
       ry="5.6647124"
       y="-643.17993"
       x="-1198.6768"
       height="42.485344"
       width="42.485344"
       id="rect3011"
       style="font-style:normal;font-weight:normal;font-size:medium;line-height:125%;font-family:Sans;letter-spacing:0px;word-spacing:0px;opacity:0.42127662;fill:#f60000;fill-opacity:1;stroke:none" />
    <rect
       ry="5.6647124"
       rx="5.6647124"
       style="font-style:normal;font-weight:normal;font-size:medium;line-height:125%;font-family:Sans;letter-spacing:0px;word-spacing:0px;opacity:0.42127662;fill:#f60000;fill-opacity:1;stroke:none"
       id="rect3013"
       width="127.45603"
       height="42.485344"
       x="-1383.7914"
       y="-643.17993" />
    <text
       sodipodi:linespacing="125%"
       id="text4177"
       y="-327.60477"
       x="486.11096"
       style="font-style:normal;font-weight:normal;font-size:95.24502563px;line-height:125%;font-family:sans-serif;letter-spacing:0px;word-spacing:0px;fill:#000000;fill-opacity:1;stroke:none;stroke-width:1px;stroke-linecap:butt;stroke-linejoin:miter;stroke-opacity:1"
       xml:space="preserve"><tspan
         style="font-style:normal;font-variant:normal;font-weight:900;font-stretch:normal;font-size:428.60256958px;font-family:Raleway;-inkscape-font-specification:'Raleway Heavy'"
         y="-327.60477"
         x="486.11096"
         id="tspan4179"
         sodipodi:role="line">Buiac</tspan></text>
    <path
       inkscape:connector-curvature="0"
       id="path4194"
       d="m 618.56609,-69.005804 -82.58796,82.586436 0,241.934698 128.94411,0 c 15.8452,0 30.77579,-1.5234 44.7927,-4.57052 14.32163,-3.35187 26.81441,-8.38014 37.47945,-15.08396 10.66505,-6.70365 19.04549,-15.23521 25.13979,-25.59555 6.09431,-10.66501 9.1412,-23.31045 9.1412,-37.93681 0,-22.85366 -5.48469,-40.98378 -16.45445,-54.39125 -10.66504,-13.71221 -25.29187,-23.310854 -43.87951,-28.79569 12.15981,-9.207317 17.34899,-12.989935 22.28978,-24.053913 7.92261,-14.016873 10.67664,-35.670748 10.67664,-50.906518 0,-10.3603426 -1.82719,-20.4153836 -5.48378,-30.166158 -3.35187,-10.055758 -8.22748,-18.892536 -14.6265,-26.510421 -6.39903,-7.922629 -14.16885,-14.321537 -23.31031,-19.197044 -9.14147,-4.875428 -19.35065,-7.3133 -30.62512,-7.3133 l -61.49604,0 z"
       style="font-style:normal;font-variant:normal;font-weight:900;font-stretch:normal;font-size:573.84613037px;line-height:125%;font-family:Raleway;-inkscape-font-specification:'Raleway Heavy';letter-spacing:0px;word-spacing:0px;fill:#000000;fill-opacity:1;stroke:none;stroke-width:1px;stroke-linecap:butt;stroke-linejoin:miter;stroke-opacity:1" />
    <g
       style="font-style:normal;font-weight:normal;font-size:medium;line-height:125%;font-family:Sans;letter-spacing:0px;word-spacing:0px;fill:#000000;fill-opacity:1;stroke:none"
       transform="translate(-2733.3374,-554.37172)"
       id="g4183">
      <path
         inkscape:connector-curvature="0"
         id="path4167"
         d="m 1627.9612,507.10271 c -5.5036,0 -10.1626,4.659 -10.1626,10.16261 l 0,276.05757 c 0,5.50364 4.2288,10.16261 9.7325,10.16261 l 0.4301,0 1.2367,0 83.398,0 c 46.5692,0 84.6885,-37.69594 84.6885,-84.68847 0,-37.25537 -24.5732,-68.57985 -58.0183,-80.01046 16.9342,-13.54742 28.3908,-34.30358 28.3908,-57.58818 0,-41.06556 -33.0233,-74.09568 -73.6656,-74.09568 l -64.7934,0 -1.2367,0 z m 10.539,20.75539 55.4911,0 c 29.2116,0 52.9102,23.70535 52.9102,53.34029 0,28.78824 -23.6986,52.47999 -52.9102,52.47999 l -4.3016,0 0,21.18554 22.9062,0 c 35.1386,0 63.5098,28.79453 63.9331,63.93311 -0.4233,35.5619 -28.7945,63.93308 -63.9331,63.93308 l -74.0957,0 0,-119.26291 -0.2688,0 0,-32.26226 0.2688,0 0,-103.34684 z"
         style="font-variant:normal;font-stretch:normal;font-family:Quicksand;-inkscape-font-specification:Quicksand;fill:#000000" />
      <path
         sodipodi:nodetypes="ccccsccccccccccsccccsc"
         inkscape:connector-curvature="0"
         id="path4169"
         style="font-variant:normal;font-stretch:normal;font-family:Quicksand;-inkscape-font-specification:Quicksand;fill:#000000"
         d="m 1874.7642,683.65349 0,0 c 0,66.04358 46.6746,119.80994 112.2949,119.80994 l 0,0 c 66.4669,0 113.2942,-53.76636 113.2942,-119.80994 l 0,-166.37922 0,0 c 0,-5.50364 -4.6569,-10.16057 -10.5839,-10.16057 l 0,0 c -5.5036,0 -10.1606,4.65696 -10.1606,10.16057 l 0,0 0,166.37922 0,0 c 0,54.61295 -37.5134,98.6421 -92.5497,99.06548 l 0,0 c -54.1896,-0.42338 -91.5504,-44.45255 -91.5504,-99.06551 l 0,-166.37922 0,0 c 0,-5.50361 -4.657,-10.16057 -10.5839,-10.16057 l 0,0 c -5.5037,0 -10.1606,4.65696 -10.1606,10.16057 l 0,166.37922" />
      <path
         inkscape:connector-curvature="0"
         id="path4171"
         style="font-variant:normal;font-stretch:normal;font-family:Quicksand;-inkscape-font-specification:Quicksand;fill:#000000"
         d="m 2209.7848,793.3029 0,0 c 0,5.50363 4.6569,10.16053 10.1605,10.16053 l 0,0 c 5.927,0 10.5839,-4.6569 10.5839,-10.16053 l 0,-276.02863 0,0 c 0,-5.50361 -4.6569,-10.16057 -10.5839,-10.16057 l 0,0 c -5.5036,0 -10.1605,4.65696 -10.1605,10.16057 l 0,276.02863" />
      <path
         sodipodi:nodetypes="scccscccscccs"
         inkscape:connector-curvature="0"
         id="path4173"
         d="m 2435.5422,508.39319 c -4.2335,0 -8.4692,2.5347 -10.1626,6.34493 l -102.8629,274.76707 c -2.1168,5.08028 0.8345,11.43337 5.9147,13.55016 1.2701,0 2.971,0.43015 3.8178,0.43015 4.2335,0 8.039,-2.5415 9.7324,-6.77508 l 93.9908,-249.81758 93.5606,249.81758 c 1.6934,4.23358 5.9222,6.77508 9.7324,6.77508 1.2701,0 2.1243,-0.43015 3.8178,-0.43015 5.0802,-2.11679 7.6013,-8.46988 5.4845,-13.55016 L 2445.7048,514.73812 c -1.27,-3.81026 -5.5057,-6.34493 -10.1626,-6.34493 z"
         style="font-variant:normal;font-stretch:normal;font-family:Quicksand;-inkscape-font-specification:Quicksand;fill:#000000" />
      <path
         inkscape:connector-curvature="0"
         id="path4175"
         style="font-variant:normal;font-stretch:normal;font-family:Quicksand;-inkscape-font-specification:Quicksand;fill:#000000"
         d="m 2581.4293,654.01849 0,0 c 0,82.55452 69.0073,149.44494 154.1019,149.44494 l 0,0 c 36.4086,0 69.8539,-12.27735 95.6786,-32.17511 l 0,0 c 4.6569,-3.38685 5.5036,-11.00727 1.2701,-14.81747 l 0,0 c -2.9635,-5.08029 -9.7372,-5.92699 -14.8175,-2.54014 l 0,0 c -22.0145,18.62764 -50.8029,28.78826 -82.1312,28.78826 l 0,0 c -74.0874,0 -133.3574,-58 -133.3574,-128.70048 l 0,0 c 0,-72.39394 59.27,-130.39391 133.3574,-130.39391 l 0,0 c 31.3283,0 60.1167,11.0073 82.9779,28.78826 l 0,0 c 4.2336,3.38685 11.0073,2.9635 14.3941,-2.11675 l 0,0 c 3.8102,-3.81023 2.9635,-11.00731 -1.6934,-14.8175 l 0,0 c -25.8247,-19.89776 -59.27,-32.59847 -95.6786,-32.59847 l 0,0 c -85.0946,0.42335 -154.1019,66.89045 -154.1019,151.13834" />
      <path
         d="m 2362.46,441.62316 0,0 c -5.5037,0 -10.1606,4.6569 -10.1606,10.1605 l 0,0 c 0,5.927 4.6569,10.5839 10.1606,10.5839 l 145.2138,0 0,0 c 5.5036,0 10.1606,-4.6569 10.1606,-10.5839 l 0,0 c 0,-5.5036 -4.657,-10.1605 -10.1606,-10.1605 l -145.2138,0"
         style="font-variant:normal;font-stretch:normal;font-family:Quicksand;-inkscape-font-specification:Quicksand;fill:#000000"
         id="path4177"
         inkscape:connector-curvature="0"
         sodipodi:nodetypes="ccccsccccsc" />
      <circle
         style="opacity:1;fill:#000000;fill-opacity:1;stroke:none;stroke-width:5;stroke-miterlimit:4;stroke-dasharray:none;stroke-opacity:1"
         id="path4181"
         cx="2220.1973"
         cy="452.26416"
         r="10.315673" />
    </g>
    <path
       inkscape:connector-curvature="0"
       id="path4195"
       d="m 934.43763,-69.005804 -83.86364,83.863637 0,240.657497 128.94418,0 c 15.84518,0 30.77583,-1.5234 44.79263,-4.57052 14.3217,-3.35187 26.816,-8.38014 37.4811,-15.08396 10.665,-6.70365 19.0439,-15.23521 25.1382,-25.59555 6.0943,-10.66501 9.1412,-23.31045 9.1412,-37.93681 0,-22.85366 -5.4847,-40.98378 -16.4544,-54.39125 -10.6651,-13.71221 -25.2904,-23.310854 -43.878,-28.79569 12.1598,-9.207317 17.349,-12.989935 22.2897,-24.053913 7.9227,-14.016873 10.6767,-35.670748 10.6767,-50.906518 0,-10.3603426 -1.8287,-20.4153836 -5.4853,-30.166158 -3.3519,-10.055758 -8.2275,-18.892536 -14.6266,-26.510421 -6.399,-7.922629 -14.1688,-14.321537 -23.3103,-19.197044 -9.1414,-4.875428 -19.3491,-7.3133 -30.62346,-7.3133 l -60.22201,0 z"
       style="font-style:normal;font-variant:normal;font-weight:900;font-stretch:normal;font-size:573.84613037px;line-height:125%;font-family:Raleway;-inkscape-font-specification:'Raleway Heavy';letter-spacing:0px;word-spacing:0px;fill:#000000;fill-opacity:1;stroke:none;stroke-width:1px;stroke-linecap:butt;stroke-linejoin:miter;stroke-opacity:1" />
    <path
       inkscape:connector-curvature="0"
       id="rect4218"
       d="m 606.7398,-82.597741 -83.79827,83.7982441 9.0665,9.0680879 83.79983,-83.799837 -9.06806,-9.066495 z"
       style="font-style:normal;font-weight:normal;font-size:medium;line-height:125%;font-family:Sans;letter-spacing:0px;word-spacing:0px;opacity:1;fill:#000000;fill-opacity:1;stroke:none;stroke-width:5;stroke-miterlimit:4;stroke-dasharray:none;stroke-opacity:1" />
    <path
       sodipodi:nodetypes="cccc"
       inkscape:connector-curvature="0"
       id="path4233"
       d="m 846.47524,-72.481113 79.54935,0.943384 -78.30337,77.6720597 z"
       inkscape:transform-center-y="8.6336111"
       inkscape:transform-center-x="-8.3519701"
       style="font-style:normal;font-weight:normal;font-size:medium;line-height:125%;font-family:Sans;letter-spacing:0px;word-spacing:0px;opacity:1;fill:#000000;fill-opacity:1;stroke:none;stroke-width:5;stroke-miterlimit:4;stroke-dasharray:none;stroke-opacity:1" />
    <path
       inkscape:connector-curvature="0"
       style="font-style:normal;font-variant:normal;font-weight:900;font-stretch:normal;font-size:573.84613037px;line-height:125%;font-family:Raleway;-inkscape-font-specification:'Raleway Heavy';letter-spacing:0px;word-spacing:0px;fill:#000000;fill-opacity:1;stroke:none;stroke-width:1px;stroke-linecap:butt;stroke-linejoin:miter;stroke-opacity:1"
       d="m 1246.2137,-69.005789 -83.8636,83.863638 0,240.657501 128.9442,0 c 15.8452,0 30.7758,-1.5234 44.7927,-4.57052 14.3216,-3.35187 26.8159,-8.38015 37.481,-15.08396 10.665,-6.70365 19.0439,-15.23521 25.1382,-25.59555 6.0943,-10.66501 9.1412,-23.31046 9.1412,-37.93682 0,-22.85365 -5.4846,-40.98377 -16.4544,-54.39124 -10.6651,-13.71221 -25.2903,-23.310854 -43.878,-28.795694 12.1598,-9.207317 17.349,-12.989935 22.2898,-24.053913 7.9226,-14.016873 10.6766,-35.670748 10.6766,-50.906518 0,-10.3603427 -1.8287,-20.4153837 -5.4853,-30.166158 -3.3519,-10.055758 -8.2275,-18.892536 -14.6265,-26.510421 -6.399,-7.922629 -14.1689,-14.321537 -23.3103,-19.197044 -9.1415,-4.875428 -19.3491,-7.313301 -30.6235,-7.313301 l -60.2221,0 z"
       id="path4236" />
    <text
       sodipodi:linespacing="125%"
       id="text4305"
       y="-309.09567"
       x="2050.1892"
       style="font-style:normal;font-weight:normal;font-size:101.91523743px;line-height:125%;font-family:sans-serif;letter-spacing:0px;word-spacing:0px;fill:#000000;fill-opacity:1;stroke:none;stroke-width:1px;stroke-linecap:butt;stroke-linejoin:miter;stroke-opacity:1"
       xml:space="preserve"><tspan
         style="font-style:normal;font-variant:normal;font-weight:bold;font-stretch:normal;font-size:458.61856079px;font-family:'Futura Book';-inkscape-font-specification:'Futura Book, Bold'"
         y="-309.09567"
         x="2050.1892"
         id="tspan4307"
         sodipodi:role="line">Buiac</tspan></text>
    <path
       d="m 598.2468,681.46119 7.12866,0 q 9.04128,0 18.95176,-0.34776 9.91062,0 18.43032,2.4342 9.04115,1.91262 14.25732,8.17194 5.7376,6.78089 5.7376,18.95177 0,10.60601 -5.7376,16.34375 -5.21617,6.0855 -14.25732,8.5197 -8.5197,2.60802 -17.73479,2.95578 -9.56286,0.69539 -17.73467,0.69539 l -9.04128,0 0,-57.72477 z m 37.90367,111.10285 q 38.42524,0.34776 67.28762,-16.34375 29.0362,-17.03928 29.90554,-58.4203 0.69552,-58.42029 -54.94281,-68.33078 l 0,-0.69552 q 30.2533,-17.56085 29.55791,-54.94294 -0.34776,-38.07748 -21.73373,-54.07347 -21.73373,-15.64822 -58.07253,-15.64822 l -99.6275,0 0,268.45498 107.6255,0 z M 598.2468,577.487 l 5.04222,0 q 15.30059,-0.34763 27.81923,3.6513 12.51863,4.52064 12.86626,22.42925 -0.34763,16.34375 -11.82311,21.21216 -11.47535,5.04221 -26.08042,4.69445 l -7.82418,0 0,-51.98716 z"
       style="font-style:normal;font-variant:normal;font-weight:bold;font-stretch:normal;font-size:267.14440918px;line-height:125%;font-family:'Futura Book';-inkscape-font-specification:'Futura Book, Bold';letter-spacing:0px;word-spacing:0px;fill:#000000;fill-opacity:1;stroke:none;stroke-width:1px;stroke-linecap:butt;stroke-linejoin:miter;stroke-opacity:1"
       id="path4316"
       inkscape:connector-curvature="0" />
    <path
       d="m 932.94625,524.10906 0,141.35614 q 0,13.21403 -0.69552,25.55885 -1.04315,12.86639 -5.73761,23.99398 -4.69458,10.25838 -14.25744,16.69151 -9.91049,6.78103 -26.602,6.78103 -16.5177,0 -26.08055,-6.78103 -9.56286,-6.43313 -14.25732,-16.69151 -4.52064,-11.12759 -5.7376,-23.99398 -1.39105,-12.34482 -1.39105,-25.55885 l 0,-141.35614 -69.72183,0 0,150.919 q -0.34763,26.08042 4.17288,50.24835 4.69459,24.51569 23.99412,44.51074 17.73466,16.34376 41.55483,23.12465 23.4724,6.78089 47.46652,6.78089 24.16793,0 47.9881,-6.78089 23.82017,-6.78089 41.03322,-23.12465 19.4734,-19.99505 24.168,-44.51074 4.1728,-24.16793 3.8251,-50.24835 l 0,-150.919 -69.72185,0 z"
       style="font-style:normal;font-variant:normal;font-weight:bold;font-stretch:normal;font-size:267.14440918px;line-height:125%;font-family:'Futura Book';-inkscape-font-specification:'Futura Book, Bold';letter-spacing:0px;word-spacing:0px;fill:#000000;fill-opacity:1;stroke:none;stroke-width:1px;stroke-linecap:butt;stroke-linejoin:miter;stroke-opacity:1"
       id="path4318"
       inkscape:connector-curvature="0" />
    <path
       d="m 1116.3789,524.10906 -69.7218,0 0,268.45498 69.7218,0 0,-268.45498 z"
       style="font-style:normal;font-variant:normal;font-weight:bold;font-stretch:normal;font-size:267.14440918px;line-height:125%;font-family:'Futura Book';-inkscape-font-specification:'Futura Book, Bold';letter-spacing:0px;word-spacing:0px;fill:#000000;fill-opacity:1;stroke:none;stroke-width:1px;stroke-linecap:butt;stroke-linejoin:miter;stroke-opacity:1"
       id="path4320"
       inkscape:connector-curvature="0" />
    <path
       inkscape:connector-curvature="0"
       id="path4322"
       d="m 1241.2183,524.10879 -103.2788,268.45578 72.6995,0 67.8235,-188.55008 4.1575,11.55639 c 0.9992,2.66373 1.927,5.24655 2.783,7.73994 l 60.8828,169.25375 72.2777,0 -101.1909,-268.45578 -76.1543,0 z"
       style="font-style:normal;font-variant:normal;font-weight:bold;font-stretch:normal;font-size:267.14440918px;line-height:125%;font-family:'Futura Book';-inkscape-font-specification:'Futura Book, Bold';letter-spacing:0px;word-spacing:0px;fill:#000000;fill-opacity:1;stroke:none;stroke-width:1px;stroke-linecap:butt;stroke-linejoin:miter;stroke-opacity:1" />
    <path
       d="m 1632.2507,614.17356 0,-83.63137 q -30.6011,-13.21416 -63.8101,-13.56179 -59.4636,0.69539 -102.0617,43.46746 -39.2946,41.20707 -39.6424,98.23645 -0.3476,60.5066 43.1199,101.53999 43.1196,39.12063 100.8444,39.46839 15.996,0 30.6011,-3.99906 14.2573,-3.12959 30.9488,-8.51957 l 0,-83.63138 0,0 q -23.8202,28.16686 -60.159,28.51462 -33.209,-0.34776 -52.3348,-21.0382 -19.995,-19.99505 -20.3428,-51.98716 0.3478,-31.99198 19.9951,-53.03018 19.1257,-21.03834 51.6394,-21.3861 37.7297,0.34776 61.2021,29.5579 l 0,0 z"
       style="font-style:normal;font-variant:normal;font-weight:bold;font-stretch:normal;font-size:267.14440918px;line-height:125%;font-family:'Futura Book';-inkscape-font-specification:'Futura Book, Bold';letter-spacing:0px;word-spacing:0px;fill:#000000;fill-opacity:1;stroke:none;stroke-width:1px;stroke-linecap:butt;stroke-linejoin:miter;stroke-opacity:1"
       id="path4324"
       inkscape:connector-curvature="0" />
    <rect
       y="654.77496"
       x="468.77457"
       height="195.0405"
       width="1227.8389"
       id="rect4313"
       style="font-style:normal;font-weight:normal;font-size:medium;line-height:125%;font-family:Sans;letter-spacing:0px;word-spacing:0px;opacity:1;fill:none;fill-opacity:1;stroke:#000000;stroke-width:53.31729507;stroke-miterlimit:4;stroke-dasharray:none;stroke-opacity:1" />
    <path
       d="m 2214.8109,154.6347 c 33.547,0.30355 62.9197,-6.83076 88.1179,-21.4033 25.35,-14.8761 38.4046,-40.378 39.1636,-76.505538 0.6071,-51.0036201 -23.3767,-80.83174 -71.9517,-89.48418 l 0,-0.91067 c 26.4128,-15.33151 39.3155,-39.31529 38.7082,-71.951682 -0.3036,-33.24351 -9.7909,-56.8478 -28.4619,-70.81306 -18.9745,-13.6617 -44.3245,-20.49264 -76.0501,-20.49264 l -130.4691,0 0,351.56107 z"
       style="font-style:normal;font-variant:normal;font-weight:bold;font-stretch:normal;font-size:267.14440918px;line-height:125%;font-family:'Futura Book';-inkscape-font-specification:'Futura Book, Bold';letter-spacing:0px;word-spacing:0px;fill:#000000;fill-opacity:1;stroke:none;stroke-width:1px;stroke-linecap:butt;stroke-linejoin:miter;stroke-opacity:1"
       id="path4339"
       inkscape:connector-curvature="0"
       sodipodi:nodetypes="cccccccsccc" />
    <path
       d="m 2365.7374,-84.672788 0,144.13099 c 0.3035,38.556324 12.5991,65.500238 36.8867,80.831758 23.5283,15.17965 53.66,22.61752 90.3948,22.31396 36.8865,0.30356 67.1699,-7.13431 90.8503,-22.31396 23.9838,-15.33152 36.1275,-42.275434 36.4311,-80.831758 l 0,-144.13099 -84.9302,0 -84.9302,0 z"
       style="font-style:normal;font-variant:normal;font-weight:bold;font-stretch:normal;font-size:267.14440918px;line-height:125%;font-family:'Futura Book';-inkscape-font-specification:'Futura Book, Bold';letter-spacing:0px;word-spacing:0px;fill:#000000;fill-opacity:1;stroke:none;stroke-width:1px;stroke-linecap:butt;stroke-linejoin:miter;stroke-opacity:1"
       id="path4341"
       inkscape:connector-curvature="0"
       sodipodi:nodetypes="cccccccccc" />
    <path
       d="m 2741.3627,-84.672788 -84.9302,0 0,239.307488 84.9302,0 0,-239.307488 z m -42.5788,-139.349182 q -20.0372,0.45541 -33.0159,13.6617 -14.5724,13.88932 -14.5724,33.92654 0,20.03705 14.5724,33.01571 12.9787,14.57254 33.0159,14.57254 20.037,0 34.1541,-14.57254 12.9787,-12.97866 13.4341,-33.01571 -0.4554,-20.03722 -13.4341,-33.92654 -14.1171,-13.20629 -34.1541,-13.6617 l 0,0 z"
       style="font-style:normal;font-variant:normal;font-weight:bold;font-stretch:normal;font-size:267.14440918px;line-height:125%;font-family:'Futura Book';-inkscape-font-specification:'Futura Book, Bold';letter-spacing:0px;word-spacing:0px;fill:#000000;fill-opacity:1;stroke:none;stroke-width:1px;stroke-linecap:butt;stroke-linejoin:miter;stroke-opacity:1"
       id="path4343"
       inkscape:connector-curvature="0" />
    <path
       d="m 3050.5848,-84.672788 -84.9302,0 0,23.4526 0,0 c -8.956,-10.92936 -19.9613,-18.89858 -33.0159,-23.90784 -13.0544,-4.85758 -26.792,-7.28636 -41.2127,-7.28636 -35.9758,0.60728 -64.6653,13.20628 -86.0686,37.79735 -22.1623,24.13581 -33.3952,53.96375994 -33.6989,89.48418 0.3037,35.06501 11.6883,64.741264 34.1543,89.028768 22.0104,25.19818 50.8518,38.10091 86.524,38.70801 14.4207,0 28.31,-2.95996 41.6682,-8.88006 12.7509,-5.61637 22.9972,-14.19288 30.7388,-25.72952 l 0.9108,0 0,26.64036 84.9302,0 z"
       style="font-style:normal;font-variant:normal;font-weight:bold;font-stretch:normal;font-size:267.14440918px;line-height:125%;font-family:'Futura Book';-inkscape-font-specification:'Futura Book, Bold';letter-spacing:0px;word-spacing:0px;fill:#000000;fill-opacity:1;stroke:none;stroke-width:1px;stroke-linecap:butt;stroke-linejoin:miter;stroke-opacity:1"
       id="path4345"
       inkscape:connector-curvature="0"
       sodipodi:nodetypes="cccccccccccccccc" />
    <path
       d="m 3265.8408,-6.8009981 0,-71.7238899 q -25.7295,-13.8895 -56.0129,-13.8895 -57.3792,0.45542 -94.7213,35.74822 -38.708,35.06501 -39.1634,94.26565 0.4554,55.102228 38.7082,89.028768 36.8865,35.06501 91.3055,35.97567 15.4834,0 30.9666,-3.8708 14.8002,-2.73234 28.9173,-9.7909 l 0,-71.723889 0,0 q -18.2156,16.394043 -42.579,16.394043 -26.6404,0 -42.3512,-16.849462 -17.3049,-15.93862 -17.3049,-41.89577 0,-25.7295201 17.3049,-42.1235601 15.7108,-15.7109999 40.9851,-16.1664199 12.5231,0 23.9079,4.55402 10.7017,5.23688 20.0372,12.0678199 l 0,0 z"
       style="font-style:normal;font-variant:normal;font-weight:bold;font-stretch:normal;font-size:267.14440918px;line-height:125%;font-family:'Futura Book';-inkscape-font-specification:'Futura Book, Bold';letter-spacing:0px;word-spacing:0px;fill:#000000;fill-opacity:1;stroke:none;stroke-width:1px;stroke-linecap:butt;stroke-linejoin:miter;stroke-opacity:1"
       id="path4347"
       inkscape:connector-curvature="0" />
    <path
       sodipodi:nodetypes="ccscsccccc"
       inkscape:connector-curvature="0"
       id="path4372"
       style="font-style:normal;font-variant:normal;font-weight:bold;font-stretch:normal;font-size:267.14440918px;line-height:125%;font-family:'Futura Book';-inkscape-font-specification:'Futura Book, Bold';letter-spacing:0px;word-spacing:0px;fill:#ff2a2a;fill-opacity:1;stroke:none;stroke-width:1px;stroke-linecap:butt;stroke-linejoin:miter;stroke-opacity:1"
       d="m 2177.7313,-224.02197 c -13.3581,0.30355 -24.3634,4.85757 -33.0159,13.6617 -9.715,9.25955 -14.5723,20.5684 -14.5723,33.92654 0,13.35798 4.8573,24.36327 14.5723,33.01571 8.6525,9.71497 19.6578,14.57254 33.0159,14.57254 13.358,0 24.7428,-4.85757 34.1542,-14.57254 8.6524,-8.65244 13.1303,-19.65773 13.434,-33.01571 -0.3037,-13.35814 -4.7816,-24.66699 -13.434,-33.92654 -9.4114,-8.80413 -20.7962,-13.35815 -34.1542,-13.6617 z" />
    <g
       style="font-style:normal;font-weight:normal;font-size:medium;line-height:125%;font-family:Sans;letter-spacing:0px;word-spacing:0px;fill:#000000;fill-opacity:1;stroke:none"
       transform="matrix(1.6136226,0,0,1.6136226,1.417785,-2013.6715)"
       id="g4448">
      <path
         inkscape:connector-curvature="0"
         id="path4440"
         d="m 1654.7176,2845.858 -1.9414,5.1796 0,199.4668 53.1484,0 0,-204.6464 -51.207,0 z m 140.0097,0 -78.7304,204.6464 56.4629,0 14.0488,-35.5214 73.2969,0 13.3867,35.5214 56.7285,0 -77.1406,-204.6464 -58.0528,0 z m 134.7149,41.4531 c -12.4812,17.872 -18.798,38.2491 -18.9375,61.1347 -0.1767,30.7499 10.7807,56.551 32.8711,77.4043 8.8443,8.0241 18.2943,14.4414 28.3476,19.2559 l -42.2812,-157.7949 z m -106.2188,21.7695 0.5313,0 21.7363,65.2109 -44.2695,0 22.0019,-65.2109 z m -194.789,6.9297 -50.2149,134.0332 c 11.0869,-3.5188 20.7141,-9.1517 28.877,-16.9023 9.8965,-10.1616 16.0361,-21.4727 18.4219,-33.9317 2.1207,-12.2823 3.0927,-25.0504 2.916,-38.3047 l 0,-44.8945 z"
         style="font-style:normal;font-variant:normal;font-weight:bold;font-stretch:normal;font-size:medium;line-height:125%;font-family:'Futura Book';-inkscape-font-specification:'Futura Book, Bold';letter-spacing:0px;word-spacing:0px;fill:#000000;fill-opacity:1;stroke:none;stroke-width:1px;stroke-linecap:butt;stroke-linejoin:miter;stroke-opacity:1" />
      <path
         inkscape:connector-curvature="0"
         id="path4442"
         d="m 1548.4157,2879.7991 0,107.7578 c 0,6.7155 -0.1778,13.2087 -0.5312,19.4824 -0.5302,6.5387 -1.9873,12.6358 -4.3731,18.291 -2.3858,5.2133 -6.0092,9.4553 -10.8691,12.7246 -5.0366,3.4461 -11.7966,5.1699 -20.2793,5.1699 -8.3944,0 -15.021,-1.7238 -19.8809,-5.1699 -4.8598,-3.2693 -8.4833,-7.5113 -10.8691,-12.7246 -2.2974,-5.6552 -3.7545,-11.7523 -4.373,-18.291 -0.7069,-6.2737 -1.0606,-12.7669 -1.0606,-19.4824 l 0,-69.2207 -53.1484,53.1484 0,23.3613 c -0.1767,13.2543 0.8823,26.0224 3.1797,38.3047 2.3857,12.459 8.4828,23.7701 18.291,33.9317 9.0129,8.306 19.5722,14.1808 31.6777,17.6269 11.9288,3.4461 23.9897,5.1699 36.1836,5.1699 12.2823,0 24.4765,-1.7238 36.582,-5.1699 0.8094,-0.2304 1.61,-0.4725 2.4043,-0.7246 l 50.2149,-134.0332 0,-70.1523 -53.1485,0 z m 77.4903,0 0,5.1796 1.9414,-5.1796 -1.9414,0 z m -221.6758,110.4863 -94.1602,94.1601 31.8946,0 c 19.5279,0.1768 36.6249,-3.9762 51.2929,-12.459 14.7564,-8.6594 22.3571,-23.505 22.7989,-44.5351 0.1898,-15.9467 -3.7564,-28.3313 -11.8262,-37.166 z"
         style="font-style:normal;font-variant:normal;font-weight:bold;font-stretch:normal;font-size:medium;line-height:125%;font-family:'Futura Book';-inkscape-font-specification:'Futura Book, Bold';letter-spacing:0px;word-spacing:0px;fill:#000000;fill-opacity:1;stroke:none;stroke-width:1px;stroke-linecap:butt;stroke-linejoin:miter;stroke-opacity:1" />
      <path
         inkscape:connector-curvature="0"
         id="path4444"
         d="m 1272.6476,2851.5148 0,204.6464 50.1504,0 94.1602,-94.1601 c -6.9546,-7.6137 -16.9702,-12.5924 -30.0586,-14.9239 l 0,-0.5292 c 15.3749,-8.9246 22.8866,-22.8851 22.5332,-41.8829 -0.1767,-19.3512 -5.6998,-33.0914 -16.5684,-41.2207 -11.0452,-7.9525 -25.802,-11.9297 -44.2695,-11.9296 l -75.9473,0 z m 163.1114,0 0,91.6855 53.1484,-53.1484 0,-38.5371 -53.1484,0 z m -103.2344,40.6757 c 6.6492,0.087 12.7574,1.0206 18.3242,2.7989 6.362,2.2974 9.6319,7.9963 9.8086,17.0976 -0.1767,8.306 -3.1818,13.6958 -9.0137,16.1699 -5.8318,2.5625 -12.4585,3.7548 -19.8808,3.5782 l -5.9649,0 0,-39.6289 3.8438,0 c 0.972,-0.022 1.9329,-0.028 2.8828,-0.016 z m 13.1543,79.0098 c 5.0366,0 9.721,0.6184 14.0508,1.8555 4.5948,0.9719 8.2163,3.0494 10.8672,6.2304 2.9159,3.4461 4.375,8.262 4.375,14.4473 0,5.3901 -1.4591,9.5431 -4.375,12.459 -2.6509,3.0927 -6.2724,5.2571 -10.8672,6.4941 -4.3298,1.3254 -8.8364,2.0772 -13.5196,2.2539 -4.8598,0.3535 -9.3665,0.5293 -13.5195,0.5293 l -6.8926,0 0,-44.0039 5.4336,0 c 4.5948,0 9.4107,-0.089 14.4473,-0.2656 z"
         style="font-style:normal;font-variant:normal;font-weight:bold;font-stretch:normal;font-size:medium;line-height:125%;font-family:'Futura Book';-inkscape-font-specification:'Futura Book, Bold';letter-spacing:0px;word-spacing:0px;fill:#000000;fill-opacity:1;stroke:none;stroke-width:1px;stroke-linecap:butt;stroke-linejoin:miter;stroke-opacity:1" />
      <path
         inkscape:connector-curvature="0"
         id="path4446"
         d="m 2038.327,2870.1229 c -30.2197,0.3534 -56.1541,11.3977 -77.8027,33.1347 -4.2009,4.4055 -7.9581,8.9907 -11.2832,13.752 l 42.2812,157.7949 c 14.8562,7.1145 31.0312,10.7267 48.5274,10.832 8.1293,0 15.9038,-1.0165 23.3262,-3.0488 7.2456,-1.5905 15.111,-3.7549 23.5937,-6.4941 l 0,-63.7539 c -12.1055,14.3145 -27.3918,21.5615 -45.8594,21.7382 -16.877,-0.1767 -30.1767,-5.5221 -39.8965,-16.0371 -10.1616,-10.1616 -15.331,-23.3723 -15.5078,-39.6308 0.1768,-16.2586 5.2593,-29.734 15.2442,-40.4258 9.7198,-10.6917 22.8397,-16.126 39.3633,-16.3027 19.1744,0.1765 34.7273,7.6884 46.6562,22.5332 l 0,-63.754 c -15.5517,-6.7155 -31.7655,-10.1612 -48.6426,-10.3378 z"
         style="font-style:normal;font-variant:normal;font-weight:bold;font-stretch:normal;font-size:medium;line-height:125%;font-family:'Futura Book';-inkscape-font-specification:'Futura Book, Bold';letter-spacing:0px;word-spacing:0px;fill:#000000;fill-opacity:1;stroke:none;stroke-width:1px;stroke-linecap:butt;stroke-linejoin:miter;stroke-opacity:1" />
    </g>
    <path
       style="font-style:normal;font-variant:normal;font-weight:bold;font-stretch:normal;font-size:medium;line-height:125%;font-family:'Futura Book';-inkscape-font-specification:'Futura Book, Bold';letter-spacing:0px;word-spacing:0px;fill:#ff6600;fill-opacity:1;stroke:none;stroke-width:1px;stroke-linecap:butt;stroke-linejoin:miter;stroke-opacity:1"
       d="m 2662.2712,3822.4341 -3.126,8.34 0,321.1667 85.5756,0 0,-329.5067 -82.4496,0 z m 225.4334,0 -126.766,329.5067 90.3997,0 82.9277,-229.8267 82.9279,229.8267 88.1889,0 -124.2061,-329.5067 -93.4721,0 z m 216.9078,66.7448 c -20.0963,28.7762 -30.2672,61.586 -30.4919,98.4347 -0.2844,49.5112 17.3583,91.0542 52.9268,124.6307 14.2404,12.9198 29.4562,23.2523 45.6433,31.0042 l -68.0782,-254.0696 z m -484.6606,46.2093 -80.852,215.8104 c 17.8511,-5.6658 33.3521,-14.7355 46.4953,-27.215 15.9346,-16.3614 25.8202,-34.5735 29.6617,-54.6341 3.4146,-19.776 4.9796,-40.3343 4.695,-61.6753 l 0,-72.286 z"
       id="path4458"
       inkscape:connector-curvature="0" />
    <path
       style="font-style:normal;font-variant:normal;font-weight:bold;font-stretch:normal;font-size:medium;line-height:125%;font-family:'Futura Book';-inkscape-font-specification:'Futura Book, Bold';letter-spacing:0px;word-spacing:0px;fill:#d45500;fill-opacity:1;stroke:none;stroke-width:1px;stroke-linecap:butt;stroke-linejoin:miter;stroke-opacity:1"
       d="m 2515.7451,3875.7457 0,173.5037 c 0,10.8127 -0.2864,21.2676 -0.8553,31.369 -0.8538,10.5282 -3.1999,20.3453 -7.0413,29.4509 -3.8414,8.394 -9.6756,15.2242 -17.5007,20.4881 -8.1095,5.5487 -18.9939,8.3243 -32.6522,8.3243 -13.516,0 -24.1856,-2.7756 -32.0108,-8.3243 -7.8247,-5.2639 -13.6591,-12.0941 -17.5005,-20.4881 -3.6991,-9.1056 -6.0452,-18.9227 -7.0411,-29.4509 -1.1382,-10.1014 -1.7077,-20.5563 -1.7077,-31.369 l 0,-111.4541 -85.5756,85.5757 0,37.6146 c -0.2846,21.341 1.4206,41.8992 5.1197,61.6753 3.8413,20.0606 13.6584,38.2729 29.4507,54.6344 14.5119,13.3737 31.5138,22.8329 51.0052,28.3814 19.2068,5.5487 38.6265,8.3242 58.2601,8.3242 19.7761,0 39.4103,-2.7755 58.9017,-8.3242 1.3032,-0.3709 2.5923,-0.7608 3.8712,-1.1666 l 80.8523,-215.8104 0,-112.954 z m -232.1568,177.8969 -151.6099,151.6095 51.3543,0 c 31.4424,0.2847 58.9707,-6.4022 82.5881,-20.0604 23.7596,-13.9429 35.9977,-37.846 36.709,-71.7072 0.3057,-25.6763 -6.0482,-45.6169 -19.0415,-59.8419 z"
       id="path4460"
       inkscape:connector-curvature="0"
       sodipodi:nodetypes="cscccscccsccccccsccccccccccc" />
    <path
       style="font-style:normal;font-variant:normal;font-weight:bold;font-stretch:normal;font-size:medium;line-height:125%;font-family:'Futura Book';-inkscape-font-specification:'Futura Book, Bold';letter-spacing:0px;word-spacing:0px;fill:#002255;fill-opacity:1;stroke:none;stroke-width:1px;stroke-linecap:butt;stroke-linejoin:miter;stroke-opacity:1"
       d="m 2081.9266,3846.7155 0,329.5065 80.7485,0 151.6098,-151.6096 c -11.1978,-12.259 -27.3243,-20.2753 -48.3981,-24.0294 l 0,-0.852 c 24.7554,-14.3698 36.8502,-36.8479 36.2812,-67.4368 -0.2845,-31.1579 -9.1773,-53.2813 -26.6772,-66.3705 -17.7841,-12.8045 -41.5445,-19.2083 -71.2795,-19.2082 z m 262.6299,0 0,147.6252 85.5756,-85.5756 0,-62.0496 z"
       id="path4462"
       inkscape:connector-curvature="0"
       sodipodi:nodetypes="ccccccccscccccc" />
    <path
       style="font-style:normal;font-variant:normal;font-weight:bold;font-stretch:normal;font-size:medium;line-height:125%;font-family:'Futura Book';-inkscape-font-specification:'Futura Book, Bold';letter-spacing:0px;word-spacing:0px;fill:#ff7f2a;fill-opacity:1;stroke:none;stroke-width:1px;stroke-linecap:butt;stroke-linejoin:miter;stroke-opacity:1"
       d="m 3259.0364,3860.9521 c -48.6576,0.5691 -90.4152,18.3517 -125.2723,53.351 -6.7638,7.0935 -12.8134,14.4763 -18.1672,22.1425 l 68.078,254.0697 c 23.9203,11.4552 49.9641,17.2713 78.1353,17.4408 13.0892,0 25.6071,-1.6366 37.558,-4.9088 11.6663,-2.561 24.3307,-6.0459 37.9888,-10.4565 l 0,-102.6517 c -19.4913,23.0481 -44.1041,34.7168 -73.8393,35.0012 -27.1742,-0.2844 -48.5883,-8.8912 -64.2384,-25.8217 -16.3614,-16.3615 -24.6849,-37.6324 -24.9696,-63.8107 0.2847,-26.1784 8.4682,-47.8754 24.5451,-65.0905 15.6501,-17.215 36.7748,-25.9649 63.3798,-26.2495 30.8732,0.2843 55.9154,12.3794 75.1224,36.2813 l 0,-102.6519 c -25.0401,-10.8128 -51.1463,-16.3608 -78.3206,-16.6452 z"
       id="path4464"
       inkscape:connector-curvature="0" />
    <path
       sodipodi:nodetypes="cccccccccsccccccsscccccscccscccsccccccccccccccccccccccscccsccsc"
       inkscape:connector-curvature="0"
       id="path4198"
       d="m 353.03095,2632.3167 0,344.3807 138.06583,0 c 32.86171,0.2975 61.63284,-6.6912 86.31628,-20.9661 24.83201,-14.5722 37.62253,-39.5546 38.36599,-74.9442 0.59471,-49.9617 -22.9015,-79.1813 -70.48407,-87.6572 l 0,-0.8906 c 25.873,-15.0184 38.51375,-38.5111 37.91905,-70.4807 -0.29735,-32.5644 -9.59151,-55.6866 -27.88127,-69.3666 -18.58695,-13.3825 -43.41998,-20.0753 -74.49726,-20.0753 z m 274.48501,0 0,193.6016 c -0.29735,22.3046 1.48475,43.7907 5.35083,64.4595 4.01468,20.9661 14.27492,40.0005 30.78025,57.1004 15.16698,13.9775 32.93625,23.8637 53.30747,29.6627 20.07387,5.7992 40.37005,8.7002 60.89005,8.7002 20.66875,0 41.18941,-2.901 61.56048,-8.7002 20.37156,-5.799 37.91954,-15.6852 52.64042,-29.6627 16.6539,-17.0999 26.98568,-36.1343 31.00052,-57.1004 3.56873,-20.6688 5.20442,-42.155 4.90707,-64.4595 l 0,-193.6016 -89.43856,0 0,181.3356 c 0,11.3009 -0.29937,22.2277 -0.89408,32.7852 -0.89222,11.0033 -3.34407,21.2636 -7.35892,30.7802 -4.01483,8.7729 -10.11249,15.9114 -18.29077,21.413 -8.47563,5.7992 -19.85141,8.7002 -34.12616,8.7002 -14.12617,0 -25.2773,-2.901 -33.45557,-8.7002 -8.17812,-5.5016 -14.27594,-12.6401 -18.29078,-21.413 -3.86609,-9.5166 -6.31811,-19.7769 -7.35892,-30.7802 -1.18958,-10.5575 -1.78478,-21.4843 -1.78478,-32.7852 l 0,-181.3356 z m 341.39964,0 0,344.3807 26.0902,0 41.4456,-154.6803 -53.8367,31.0826 59.1579,-220.783 z m -515.12332,68.4495 c 11.18933,0.1464 21.46825,1.7173 30.83611,4.7098 10.70604,3.8661 16.20866,13.4563 16.50601,28.7721 -0.29735,13.9773 -5.35419,23.0475 -15.16818,27.2109 -9.8138,4.3122 -20.96543,6.3184 -33.45574,6.0213 l -10.03777,0 0,-66.6878 6.46836,0 c 1.63569,-0.037 3.25271,-0.047 4.85121,-0.027 z m 22.13616,132.9581 c 8.47564,0 16.35859,1.0407 23.64482,3.1225 7.73216,1.6355 13.82645,5.1317 18.28741,10.4847 4.9069,5.7992 7.36228,13.9033 7.36228,24.3119 0,9.0705 -2.45538,16.0592 -7.36228,20.9661 -4.46096,5.2045 -10.55525,8.8467 -18.28741,10.9284 -7.28623,2.2305 -14.86982,3.4956 -22.75075,3.793 -8.1781,0.5948 -15.76219,0.8907 -22.75089,0.8907 l -11.59891,0 0,-74.0503 9.1437,0 c 7.73216,0 15.8364,-0.1497 24.31203,-0.447 z"
       style="font-style:normal;font-variant:normal;font-weight:bold;font-stretch:normal;font-size:medium;line-height:125%;font-family:'Futura Book';-inkscape-font-specification:'Futura Book,  Bold';letter-spacing:0px;word-spacing:0px;fill:#000000;fill-opacity:1;stroke:none;stroke-width:1px;stroke-linecap:butt;stroke-linejoin:miter;stroke-opacity:1" />
    <path
       sodipodi:nodetypes="ccccccccccccccccccccccccccccccccccccc"
       style="font-style:normal;font-variant:normal;font-weight:bold;font-stretch:normal;font-size:medium;line-height:125%;font-family:'Futura Book';-inkscape-font-specification:'Futura Book,  Bold';letter-spacing:0px;word-spacing:0px;fill:#000000;fill-opacity:1;stroke:none;stroke-width:1px;stroke-linecap:butt;stroke-linejoin:miter;stroke-opacity:1"
       d="m 1616.8225,2574.8678 c -50.854,0.5947 -94.4967,19.1801 -130.9271,55.7593 -33.6051,35.2411 -50.5583,77.248 -50.8556,126.0201 -0.2974,51.7462 18.1419,95.1645 55.3158,130.2565 36.8765,33.4566 79.9987,50.3351 129.3659,50.6322 13.68,0 26.7629,-1.7107 39.2535,-5.1307 12.1929,-2.6765 25.4288,-6.3188 39.7036,-10.9284 l 0,-107.2855 c -20.3712,24.0886 -46.0951,36.2841 -77.1726,36.5814 -28.4007,-0.2973 -50.7814,-9.2928 -67.1379,-26.9874 -17.1,-17.0999 -25.7993,-39.3312 -26.0968,-66.6911 0.2975,-27.3601 8.8503,-50.0367 25.653,-68.0289 16.3566,-17.9921 38.4348,-27.1369 66.2409,-27.4343 32.2668,0.2974 58.4393,12.9381 78.5134,37.9191 l 0,-107.2857 c -26.1705,-11.3009 -53.4552,-17.0994 -81.8561,-17.3966 z m -540.888,9.1437 -58.2277,217.2957 53.8365,-31.0827 -42.3791,158.1677 61.6066,0 0,-344.3807 z m 164.2744,0 -132.4884,344.3807 95.0163,0 23.6414,-59.7758 123.3446,0 22.5273,59.7758 95.4631,0 -129.8128,-344.3807 z m 47.9534,106.3914 0.8939,0 36.5781,109.7377 -74.4971,0 z"
       id="path4201"
       inkscape:connector-curvature="0" />
    <path
       inkscape:connector-curvature="0"
       id="text4203"
       d="m 2740.4314,422.13524 -45.411,78.65205 c 8.5985,9.5915 19.5179,14.3902 32.7624,14.3902 13.3009,0 24.6371,-4.83555 34.0082,-14.50891 8.6154,-8.61539 13.0729,-19.57355 13.3751,-32.87448 -0.3022,-13.30094 -4.7597,-24.56083 -13.3751,-33.78072 -6.2455,-5.84278 -13.3684,-9.7952 -21.3596,-11.87814 z m 166.8775,129.31818 c -35.8218,0.60468 -64.388,13.14816 -85.6997,37.6339 -7.9856,8.69672 -14.5266,18.14744 -19.6622,28.32884 l 16.5832,-4.44361 -29.7817,51.58593 c -0.4149,4.44848 -0.6528,8.98612 -0.6926,13.62978 0.3024,34.91483 11.6386,64.46625 34.0082,88.64956 21.9163,25.09043 50.6317,37.93564 86.151,38.54032 14.359,0 28.1895,-2.9452 41.4903,-8.83995 12.6964,-5.59231 22.8983,-14.13278 30.6067,-25.61984 l 0.9099,0 0,26.52626 84.5656,0 0,-238.2817 -84.5656,0 0,23.35215 c -8.9178,-10.88255 -19.8759,-18.81921 -32.8744,-23.80701 -12.9987,-4.83677 -26.6798,-7.25463 -41.0387,-7.25463 z m 305.9791,0 c -38.089,0.30225 -69.5273,12.16596 -94.3153,35.59355 -25.6949,23.27655 -38.6962,54.56589 -38.9984,93.86384 0.3022,36.57749 13.1509,66.12543 38.5434,88.64626 24.4858,23.27655 54.7899,35.21639 90.914,35.82107 10.2778,0 20.5562,-1.28358 30.8341,-3.85301 9.8246,-1.81387 19.4228,-5.06411 28.7939,-9.74966 l 0,-71.41462 c -12.0917,10.88255 -26.2238,16.32174 -42.3966,16.32174 -17.684,0 -31.74,-5.59179 -42.1691,-16.7766 -11.4871,-10.5803 -17.2315,-24.48696 -17.2315,-41.71773 0,-17.07955 5.7444,-31.05904 17.2315,-41.94159 10.4291,-10.42908 24.0307,-15.79545 40.8078,-16.0977 8.3132,0 16.2498,1.51231 23.8072,4.5352 7.104,3.47637 13.7537,7.47954 19.9507,12.01388 l 0,-71.41445 c -17.0795,-9.22006 -35.6693,-13.83018 -55.7717,-13.83018 z m -527.6744,7.70949 0,89.42353 84.5658,-22.6597 0,-66.76383 -84.5658,0 z m -27.3749,5.33299 -62.4459,108.15897 62.4459,-16.73246 0,-91.42651 z m 271.5159,60.18827 c 17.2308,0.30243 30.6831,5.59232 40.3565,15.87036 9.2199,10.12683 13.83,22.82291 13.83,38.08877 0,15.11463 -4.6101,27.65811 -13.83,37.63372 -9.6734,10.42909 -23.1257,15.64632 -40.3565,15.64632 -17.3818,0 -30.6815,-5.21723 -39.9014,-15.64632 -9.6733,-9.97561 -14.5124,-22.51909 -14.5124,-37.63372 0,-15.26586 4.8391,-27.96194 14.5124,-38.08877 9.2199,-10.27804 22.5196,-15.56793 39.9014,-15.87036 z m -159.5752,72.03252 -58.1549,100.72792 58.1549,0 0,-100.72792 z"
       style="font-style:normal;font-weight:normal;font-size:59.36542511px;line-height:125%;font-family:sans-serif;letter-spacing:0px;word-spacing:0px;fill:#000000;fill-opacity:1;stroke:none;stroke-width:1px;stroke-linecap:butt;stroke-linejoin:miter;stroke-opacity:1" />
    <path
       style="font-style:normal;font-variant:normal;font-weight:bold;font-stretch:normal;font-size:medium;line-height:125%;font-family:'Futura Book';-inkscape-font-specification:'Futura Book,  Bold';letter-spacing:0px;word-spacing:0px;fill:#000000;fill-opacity:1;stroke:none;stroke-width:1px;stroke-linecap:butt;stroke-linejoin:miter;stroke-opacity:1"
       d="m 369.40216,2085.6922 0,344.3807 138.06582,0 c 32.86171,0.2975 61.63284,-6.6911 86.31628,-20.9661 24.83201,-14.572 37.62253,-39.5546 38.36599,-74.9441 0.59471,-49.9618 -22.9015,-79.1814 -70.48406,-87.6572 l 0,-0.8907 c 25.87299,-15.0184 38.51374,-38.5111 37.91904,-70.4807 -0.29735,-32.5643 -9.59151,-55.6865 -27.88127,-69.3666 -18.58695,-13.3825 -43.41998,-20.0753 -74.49723,-20.0753 z m 274.48501,0 0,193.6017 c -0.29736,22.3046 1.48474,43.7907 5.35083,64.4594 4.01467,20.9661 14.27491,40.0006 30.78023,57.1006 15.16699,13.9774 32.93626,23.8635 53.30749,29.6627 20.07388,5.7991 40.37006,8.7 60.89005,8.7 20.66876,0 41.18942,-2.9009 61.56048,-8.7 20.37158,-5.7992 37.91956,-15.6853 52.64043,-29.6627 16.65391,-17.1 26.98567,-36.1345 31.00052,-57.1006 3.56872,-20.6687 5.20441,-42.155 4.90706,-64.4594 l 0,-193.6017 -89.43854,0 0,181.3357 c 0,11.3009 -0.29937,22.2277 -0.89408,32.7851 -0.89223,11.0034 -3.34408,21.2636 -7.35892,30.7802 -4.01485,8.7731 -10.1125,15.9115 -18.29078,21.4131 -8.47563,5.7991 -19.85141,8.7002 -34.12617,8.7002 -14.12616,0 -25.27729,-2.9011 -33.45557,-8.7002 -8.17811,-5.5016 -14.27593,-12.64 -18.29078,-21.4131 -3.86607,-9.5166 -6.3181,-19.7768 -7.35892,-30.7802 -1.18957,-10.5574 -1.78478,-21.4842 -1.78478,-32.7851 l 0,-181.3357 z m 341.39967,0 0,344.3807 26.09006,0 41.4457,-154.6803 -53.8367,31.0827 59.1579,-220.7831 z"
       id="path4207"
       inkscape:connector-curvature="0"
       sodipodi:nodetypes="cccccccccsccccccsscccccscccscccsccccccccc" />
    <path
       inkscape:connector-curvature="0"
       id="path4209"
       d="m 1637.0022,2030.0106 c -50.8539,0.5947 -94.4966,19.1803 -130.9271,55.7595 -33.6051,35.2411 -50.5582,77.2477 -50.8555,126.02 -0.2974,51.7461 18.1418,95.1644 55.3157,130.2566 36.8766,33.4565 79.9988,50.3349 129.3659,50.632 13.68,0 26.7628,-1.7105 39.2533,-5.1305 12.1929,-2.6765 25.4291,-6.3189 39.7038,-10.9284 l 0,-107.2856 c -20.3712,24.0885 -46.0951,36.284 -77.1725,36.5814 -28.4007,-0.2974 -50.7816,-9.2928 -67.1382,-26.9875 -17.1,-17.0999 -25.7991,-39.3311 -26.0966,-66.6911 0.2975,-27.3601 8.8502,-50.0364 25.6528,-68.0287 16.3566,-17.992 38.4349,-27.1371 66.2409,-27.4345 32.2669,0.2974 58.4396,12.9381 78.5136,37.9191 l 0,-107.2856 c -26.1705,-11.3009 -53.4552,-17.0995 -81.8561,-17.3967 z m -540.888,9.1437 -58.2278,217.2959 53.8367,-31.0826 -42.3792,158.1674 61.6067,0 0,-344.3807 -14.8364,0 z m 164.2742,0 -132.4881,344.3807 86.6086,0 91.8577,-232.1354 1.9753,-5.8537 0.894,0 3.5068,10.5274 90.0139,227.4617 85.1363,0 -129.8128,-344.3807 -97.6917,0 z"
       style="font-style:normal;font-variant:normal;font-weight:bold;font-stretch:normal;font-size:medium;line-height:125%;font-family:'Futura Book';-inkscape-font-specification:'Futura Book,  Bold';letter-spacing:0px;word-spacing:0px;fill:#000000;fill-opacity:1;stroke:none;stroke-width:1px;stroke-linecap:butt;stroke-linejoin:miter;stroke-opacity:1" />
    <path
       style="font-style:normal;font-weight:normal;font-size:59.36542511px;line-height:125%;font-family:sans-serif;letter-spacing:0px;word-spacing:0px;fill:#000000;fill-opacity:1;stroke:none;stroke-width:1px;stroke-linecap:butt;stroke-linejoin:miter;stroke-opacity:1"
       d="m 2718.9655,1034.8826 c -13.9812,0.3177 -25.4998,5.0834 -34.5556,14.2984 -10.1683,9.6914 -15.2511,21.5272 -15.2511,35.5084 0,13.9812 5.0828,25.4998 15.2511,34.5558 0.038,0.044 0.079,0.082 0.1169,0.1243 l 47.7336,-82.6747 c -4.2036,-1.0956 -8.6326,-1.7067 -13.2956,-1.8127 z m -632.009,28.3576 0,367.9595 147.515,0 c 35.1118,0.3177 65.857,-7.1497 92.2307,-22.402 26.5326,-15.5699 40.195,-42.2608 40.9894,-80.0734 0.6356,-53.3825 -24.4692,-84.6021 -75.3097,-93.6581 l 0,-0.9528 c 27.6445,-16.0464 41.1503,-41.1512 40.5149,-75.3097 -0.3177,-34.7941 -10.2467,-59.4977 -29.7885,-74.1143 -19.8595,-14.2989 -46.3936,-21.4492 -79.5987,-21.4492 z m 292.4713,117.491 0,150.8513 c 0.3179,40.3546 13.1855,68.5551 38.6059,84.6017 24.6259,15.8877 56.1661,23.6725 94.6144,23.3548 38.6069,0.3177 70.3006,-7.4671 95.0853,-23.3548 25.1027,-16.0466 37.8136,-44.2471 38.1313,-84.6017 l 0,-49.1431 -65.6395,17.5882 65.6395,-113.6906 0,-5.6058 -88.8908,0 0,133.9303 c 0,7.7849 -0.4776,14.9352 -1.4309,21.4492 -1.2711,6.5139 -3.5754,12.1547 -6.9119,16.9211 -5.8783,10.4859 -17.871,15.7291 -35.983,15.7291 -17.6354,0 -29.5514,-5.2432 -35.7476,-15.7291 -6.1962,-9.6916 -9.1351,-22.4827 -8.8174,-38.3703 l 0,-133.9303 z m 384.1027,70.1784 -88.8908,23.8187 0,156.4714 27.7616,0 61.1292,-105.8796 z"
       id="path4232"
       inkscape:connector-curvature="0"
       sodipodi:nodetypes="ccscccccccccccccscccccccccccsccscccccccccccc" />
    <path
       sodipodi:nodetypes="ccsccccccccccccccccccccccccccccccscsccccccccccccccccccc"
       style="font-style:normal;font-weight:normal;font-size:59.36542511px;line-height:125%;font-family:sans-serif;letter-spacing:0px;word-spacing:0px;fill:#000000;fill-opacity:1;stroke:none;stroke-width:1px;stroke-linecap:butt;stroke-linejoin:miter;stroke-opacity:1"
       d="m 2756.0143,991.47505 -47.7335,82.67465 c 9.0383,10.0821 20.5161,15.1262 34.438,15.1262 13.9812,0 25.8971,-5.0829 35.7475,-15.251 9.056,-9.056 13.7415,-20.5746 14.0592,-34.5558 -0.3177,-13.9812 -5.0032,-25.817 -14.0592,-35.5084 -6.5651,-6.14162 -14.0521,-10.29619 -22.452,-12.48565 z m 175.4122,135.93205 c -37.6537,0.6356 -67.681,13.8206 -90.0826,39.5587 -8.3941,9.1415 -15.2698,19.0756 -20.6678,29.7777 l 17.4313,-4.6709 -31.3049,54.2243 c -0.4362,4.676 -0.6864,9.4457 -0.728,14.3268 0.3177,36.7006 12.2339,67.7634 35.7476,93.1835 23.0372,26.3737 53.2212,39.8758 90.5571,40.5115 15.0933,0 29.631,-3.0959 43.6122,-9.2921 13.3456,-5.8783 24.0695,-14.8556 32.1722,-26.9302 l 0.9562,0 0,27.883 88.8908,0 0,-250.4685 -88.8908,0 0,24.5465 c -9.3737,-11.4391 -20.8923,-19.7817 -34.5556,-25.0246 -13.6635,-5.0842 -28.0444,-7.6257 -43.1377,-7.6257 z m 321.6283,0 c -40.0369,0.3177 -73.0833,12.7882 -99.1391,37.414 -27.0091,24.467 -40.6751,57.3566 -40.993,98.6644 0.3179,38.4482 13.8235,69.5074 40.5149,93.18 25.7381,24.4671 57.5921,37.0175 95.5637,37.6532 10.8035,0 21.6076,-1.3493 32.4111,-4.0501 10.3271,-1.9067 20.4162,-5.3231 30.2666,-10.2483 l 0,-75.0671 c -12.7102,11.4391 -27.565,17.1565 -44.565,17.1565 -18.5885,0 -33.3633,-5.8778 -44.3258,-17.6346 -12.0745,-11.1214 -18.1129,-25.7393 -18.1129,-43.8514 0,-17.953 6.0384,-32.6475 18.1129,-44.0866 10.9625,-10.9625 25.2598,-16.6033 42.8949,-16.921 8.7383,0 17.0809,1.5896 25.0248,4.7671 7.4673,3.6542 14.4572,7.8621 20.9711,12.6283 l 0,-75.0669 c -17.9531,-9.6916 -37.4936,-14.5375 -58.6242,-14.5375 z m -554.6619,8.1038 0,93.997 88.8908,-23.8186 0,-70.1784 z m -28.775,5.6057 -65.6397,113.6907 65.6397,-17.5882 z m 117.6658,138.9832 -61.1291,105.8796 61.1291,0 z"
       id="path4234"
       inkscape:connector-curvature="0" />
    <path
       inkscape:connector-curvature="0"
       id="path4303"
       d="m 3314.6977,4404.385 c -55.3754,0.6475 -102.8994,20.8854 -142.5687,60.7169 -36.5931,38.3742 -55.0544,84.117 -55.3782,137.2256 -0.016,2.8653 0.033,5.7008 0.122,8.5192 l 99.9349,-22.2063 2.5063,-1.2531 c 2.8987,-22.9923 11.8556,-42.5477 26.8928,-58.6497 17.8109,-19.5917 41.8523,-29.55 72.1306,-29.8738 35.1358,0.3238 63.635,14.0876 85.4938,41.2896 l 0,-116.8248 c -28.4974,-12.3057 -58.2075,-18.62 -89.1335,-18.9436 z m -1340.8589,9.9586 0,139.9095 33.0677,-24.8014 38.4485,57.6738 48.9394,-73.4081 53.881,107.7623 49.9154,-28.5231 c -4.7012,-1.3944 -9.6563,-2.5693 -14.8936,-3.5022 l 0,-0.9692 c 28.1734,-16.3537 41.9372,-41.9363 41.2897,-76.7484 -0.3239,-35.4596 -10.4435,-60.6386 -30.3595,-75.535 -20.2395,-14.5724 -47.2797,-21.8582 -81.12,-21.8582 l -139.1686,0 z m 298.8911,0 0,135.9636 31.3798,-17.9322 46.2224,69.3315 19.7865,-9.8944 0,-177.4685 -97.3887,0 z m 229.7571,0 0,182.3126 69.2293,34.6136 28.1638,-5.6337 c 0,-0.1604 0,-0.3187 0,-0.479 l 0,-210.8135 -97.391,0 z m 141.9964,0 0,202.3719 8.4172,-1.6835 0,-44.8606 53.7835,-12.6957 13.015,26.0279 22.1753,-4.4359 0,-164.7241 -97.391,0 z m 260.1144,0 -62.8639,163.3999 13.3965,26.793 81.7476,-23.3552 19.8309,-53.1114 0.7918,2.1227 0.2883,0 2.391,7.1751 12.5359,33.5734 44.8806,-12.8222 23.2111,69.631 46.6992,-10.3779 -76.5309,-203.0284 -106.3781,0 z"
       style="font-style:normal;font-variant:normal;font-weight:bold;font-stretch:normal;font-size:medium;line-height:125%;font-family:'Futura Book';-inkscape-font-specification:'Futura Book, Bold';letter-spacing:0px;word-spacing:0px;fill:#1a1a1a;fill-opacity:1;stroke:none;stroke-width:1px;stroke-linecap:butt;stroke-linejoin:miter;stroke-opacity:1" />
    <text
       sodipodi:linespacing="125%"
       id="text4310"
       y="2139.2795"
       x="3619.04"
       style="font-style:normal;font-weight:normal;font-size:160.92825317px;line-height:125%;font-family:sans-serif;letter-spacing:0px;word-spacing:0px;fill:#000000;fill-opacity:1;stroke:none;stroke-width:1px;stroke-linecap:butt;stroke-linejoin:miter;stroke-opacity:1"
       xml:space="preserve"><tspan
         id="tspan4316"
         style="font-style:normal;font-variant:normal;font-weight:normal;font-stretch:normal;font-family:Oxygen-Sans;-inkscape-font-specification:Oxygen-Sans"
         y="2139.2795"
         x="3619.04"
         sodipodi:role="line">zburdalnic</tspan><tspan
         style="font-style:normal;font-variant:normal;font-weight:normal;font-stretch:normal;font-family:Oxygen-Sans;-inkscape-font-specification:Oxygen-Sans"
         id="tspan4314"
         y="2340.4399"
         x="3619.04"
         sodipodi:role="line">energetic</tspan></text>
    <text
       xml:space="preserve"
       style="font-style:normal;font-weight:normal;font-size:160.92825317px;line-height:125%;font-family:sans-serif;letter-spacing:0px;word-spacing:0px;fill:#000000;fill-opacity:1;stroke:none;stroke-width:1px;stroke-linecap:butt;stroke-linejoin:miter;stroke-opacity:1"
       x="3619.04"
       y="3363.2795"
       id="text4331"
       sodipodi:linespacing="125%"><tspan
         sodipodi:role="line"
         x="3619.04"
         y="3363.2795"
         id="tspan4335"
         style="font-style:normal;font-variant:normal;font-weight:normal;font-stretch:normal;font-family:Oxygen-Sans;-inkscape-font-specification:Oxygen-Sans">energie</tspan><tspan
         id="tspan4339"
         sodipodi:role="line"
         x="3619.04"
         y="3564.4399"
         style="font-style:normal;font-variant:normal;font-weight:normal;font-stretch:normal;font-family:Oxygen-Sans;-inkscape-font-specification:Oxygen-Sans">explozie</tspan></text>
    <path
       sodipodi:nodetypes="cccccccccccccccccccccsscccccscccscccsccccccccccccccccccccc"
       id="path4342"
       d="m 1672.4577,3295.455 c -48.7631,0.5702 -90.6116,18.3916 -125.5441,53.4669 -32.2236,33.7921 -48.4798,74.0719 -48.7649,120.8389 -0.2851,49.6187 17.396,91.2519 53.0415,124.9012 35.3605,32.0812 76.71,48.2657 124.0473,48.5506 13.1176,0 25.6627,-1.6403 37.6397,-4.9195 11.6916,-2.5666 24.3834,-6.0591 38.0713,-10.4792 l 0,-102.8747 c -19.5336,23.0982 -44.2001,34.7922 -73.9997,35.0773 -27.2331,-0.2851 -48.6939,-8.9106 -64.3779,-25.8779 -16.397,-16.3969 -24.7385,-37.714 -25.0238,-63.949 0.2853,-26.2353 8.4866,-47.9795 24.5985,-65.2321 15.6841,-17.2523 36.8546,-26.0213 63.5174,-26.3064 30.9403,0.2851 56.0368,12.4062 75.2855,36.3601 l 0,-102.8748 c -25.0946,-10.8363 -51.2576,-16.3964 -78.4908,-16.6814 z m -917.54908,8.7678 0,185.642 c -0.2851,21.3875 1.4236,41.9905 5.1308,61.8094 3.8496,20.1041 13.688,38.356 29.5148,54.7529 14.5435,13.4028 31.5821,22.8825 51.1159,28.4432 19.2486,5.5607 38.7102,8.3423 58.3866,8.3423 19.819,0 39.4958,-2.7816 59.0296,-8.3423 19.5338,-5.5607 36.3605,-15.0404 50.47618,-28.4432 15.9691,-16.3969 25.8762,-34.6488 29.726,-54.7529 3.422,-19.8189 4.9904,-40.4219 4.7053,-61.8094 l 0,-185.642 -85.76168,0 0,173.8804 c 0,10.8363 -0.2869,21.3139 -0.857,31.4373 -0.8556,10.5509 -3.2068,20.3894 -7.0566,29.5147 -3.8498,8.4123 -9.6966,15.2573 -17.5387,20.5327 -8.127,5.5607 -19.0352,8.3424 -32.7231,8.3424 -13.5454,0 -24.2381,-2.7817 -32.0802,-8.3424 -7.8419,-5.2754 -13.6889,-12.1204 -17.5386,-20.5327 -3.7072,-9.1253 -6.0584,-18.9638 -7.0564,-29.5147 -1.1407,-10.1234 -1.7114,-20.601 -1.7114,-31.4373 l 0,-173.8804 z m 327.36368,0 0,330.2221 85.7613,0 0,-330.2221 z m 229.0554,0 -127.0412,330.2221 91.1099,0 22.6694,-57.3181 118.2735,0 21.6011,57.3181 91.5385,0 -124.4759,-330.2221 z m 45.982,102.0174 0.8572,0 35.0743,105.2257 -71.4344,0 z"
       style="font-style:normal;font-variant:normal;font-weight:bold;font-stretch:normal;font-size:medium;line-height:125%;font-family:'Futura Book';-inkscape-font-specification:'Futura Book,  Bold';letter-spacing:0px;word-spacing:0px;fill:#000000;fill-opacity:1;stroke:none;stroke-width:1px;stroke-linecap:butt;stroke-linejoin:miter;stroke-opacity:1"
       inkscape:connector-curvature="0" />
  </g>
</svg>
