<?xml version="1.0" encoding="UTF-8" standalone="no"?>
<!-- Created with Inkscape (http://www.inkscape.org/) -->

<svg
   xmlns:dc="http://purl.org/dc/elements/1.1/"
   xmlns:cc="http://creativecommons.org/ns#"
   xmlns:rdf="http://www.w3.org/1999/02/22-rdf-syntax-ns#"
   xmlns:svg="http://www.w3.org/2000/svg"
   xmlns="http://www.w3.org/2000/svg"
   xmlns:sodipodi="http://sodipodi.sourceforge.net/DTD/sodipodi-0.dtd"
   xmlns:inkscape="http://www.inkscape.org/namespaces/inkscape"
   width="1200"
   height="630"
   id="svg2"
   version="1.1"
   inkscape:version="0.91 r13725"
   sodipodi:docname="facebook-og-image.svg"
   inkscape:export-filename="/home/mokush/dev/buiac.github.io/images/og-image.png"
   inkscape:export-xdpi="90"
   inkscape:export-ydpi="90">
  <defs
     id="defs4">
    <clipPath
       clipPathUnits="userSpaceOnUse"
       id="clipPath4188">
      <rect
         ry="2"
         rx="2"
         y="-19.558687"
         x="171.12579"
         height="400"
         width="600"
         id="rect4190"
         style="opacity:1;fill:#ff00ff;fill-opacity:1;stroke:none;stroke-width:10;stroke-miterlimit:4;stroke-dasharray:none;stroke-opacity:1" />
    </clipPath>
  </defs>
  <sodipodi:namedview
     id="base"
     pagecolor="#f2f2f2"
     bordercolor="#666666"
     borderopacity="1.0"
     inkscape:pageopacity="1"
     inkscape:pageshadow="2"
     inkscape:zoom="0.49497475"
     inkscape:cx="277.26228"
     inkscape:cy="165.53139"
     inkscape:document-units="px"
     inkscape:current-layer="text2990"
     showgrid="false"
     inkscape:window-width="1876"
     inkscape:window-height="1051"
     inkscape:window-x="44"
     inkscape:window-y="0"
     inkscape:window-maximized="1"
     fit-margin-top="0"
     fit-margin-left="0"
     fit-margin-right="0"
     fit-margin-bottom="0">
    <inkscape:grid
       type="xygrid"
       id="grid3005"
       empspacing="5"
       visible="true"
       enabled="true"
       snapvisiblegridlinesonly="true"
       originx="-171.12579"
       originy="-671.92087" />
  </sodipodi:namedview>
  <metadata
     id="metadata7">
    <rdf:RDF>
      <cc:Work
         rdf:about="">
        <dc:format>image/svg+xml</dc:format>
        <dc:type
           rdf:resource="http://purl.org/dc/dcmitype/StillImage" />
        <dc:title />
      </cc:Work>
    </rdf:RDF>
  </metadata>
  <g
     inkscape:label="Layer 1"
     inkscape:groupmode="layer"
     id="layer1"
     transform="translate(-171.12579,249.55869)">
    <g
       style="font-style:normal;font-weight:normal;font-size:246.04397583px;line-height:125%;font-family:Sans;letter-spacing:0px;word-spacing:0px;fill:#000000;fill-opacity:1;stroke:none"
       id="text2990">
      <g
         id="g4"
         transform="matrix(1.6713223,0,0,1.6713223,300.6893,-23.274149)">
        <g
           style="font-size:246.04400635px;line-height:125%;font-family:Sans;letter-spacing:0;word-spacing:0"
           font-size="246.044"
           letter-spacing="0"
           word-spacing="0"
           transform="translate(-171.126,-274.309)"
           id="g6">
          <path
             d="m 271.9,275.8 c -1.95,0 -3.6,1.64 -3.6,3.6 l 0,97.45 c 0,1.95 1.5,3.6 3.44,3.6 l 30.02,0 c 16.45,0 29.9,-13.32 29.9,-29.9 0,-13.16 -8.67,-24.22 -20.48,-28.26 5.97,-4.8 10,-12.12 10,-20.34 0,-14.5 -11.65,-26.16 -26,-26.16 l -23.28,0 z m 3.7,7.33 19.6,0 c 10.32,0 18.7,8.37 18.7,18.83 0,10.16 -8.38,18.53 -18.7,18.53 l -1.5,0 0,7.47 8.07,0 c 12.4,0 22.43,10.16 22.58,22.57 -0.15,12.56 -10.17,22.57 -22.58,22.57 l -26.17,0 0,-42.1 -0.08,0 0,-11.38 0.1,0 0,-36.5 z"
             style="font-family:Quicksand;-inkscape-font-specification:Quicksand;fill:#4d4d4d"
             id="path8"
             inkscape:connector-curvature="0" />
          <path
             d="m 359.03,338.13 c 0,23.32 16.48,42.3 39.65,42.3 23.46,0 40,-18.98 40,-42.3 l 0,-58.73 c 0,-1.95 -1.65,-3.6 -3.74,-3.6 -1.94,0 -3.6,1.65 -3.6,3.6 l 0,58.73 c 0,19.28 -13.23,34.83 -32.66,34.98 -19.14,-0.14 -32.33,-15.7 -32.33,-34.97 l 0,-58.74 c 0,-1.95 -1.64,-3.6 -3.73,-3.6 -1.95,0 -3.6,1.65 -3.6,3.6 l 0,58.73"
             style="font-family:Quicksand;-inkscape-font-specification:Quicksand;fill:#4d4d4d"
             id="path10"
             inkscape:connector-curvature="0" />
          <path
             d="m 477.3,376.85 c 0,1.94 1.66,3.58 3.6,3.58 2.1,0 3.74,-1.64 3.74,-3.58 l 0,-97.45 c 0,-1.95 -1.65,-3.6 -3.74,-3.6 -1.94,0 -3.6,1.65 -3.6,3.6 l 0,97.45"
             style="font-family:Quicksand;-inkscape-font-specification:Quicksand;fill:#4d4d4d"
             id="path12"
             inkscape:connector-curvature="0" />
          <path
             d="m 557.02,276.26 c -1.5,0 -3,0.9 -3.6,2.24 l -36.3,97 c -0.75,1.8 0.3,4.04 2.08,4.8 0.45,0 1.05,0.14 1.35,0.14 1.5,0 2.84,-0.9 3.44,-2.4 l 33.17,-88.2 33.03,88.2 c 0.6,1.5 2.1,2.4 3.44,2.4 0.45,0 0.75,-0.15 1.35,-0.15 1.78,-0.76 2.67,-3 1.92,-4.8 l -36.3,-97 c -0.46,-1.35 -1.96,-2.24 -3.6,-2.24 z"
             style="font-family:Quicksand;-inkscape-font-specification:Quicksand;fill:#4d4d4d"
             id="path14"
             inkscape:connector-curvature="0" />
          <path
             d="m 608.53,327.67 c 0,29.15 24.36,52.76 54.4,52.76 12.86,0 24.67,-4.33 33.78,-11.36 1.66,-1.2 1.96,-3.88 0.46,-5.23 -1.04,-1.8 -3.43,-2.1 -5.23,-0.9 -7.77,6.58 -17.93,10.17 -29,10.17 -26.15,0 -47.08,-20.47 -47.08,-45.43 0,-25.56 20.93,-46.04 47.08,-46.04 11.07,0 21.23,3.9 29.3,10.17 1.5,1.2 3.9,1.04 5.08,-0.75 1.36,-1.35 1.06,-3.9 -0.6,-5.23 -9.1,-7.03 -20.9,-11.5 -33.77,-11.5 -30.04,0.14 -54.4,23.6 -54.4,53.35"
             style="font-family:Quicksand;-inkscape-font-specification:Quicksand;fill:#4d4d4d"
             id="path16"
             inkscape:connector-curvature="0" />
          <rect
             width="15"
             height="15"
             x="236.483"
             y="275.42801"
             ry="2"
             rx="2"
             id="rect18"
             style="fill:#c83771" />
          <rect
             width="45"
             height="15"
             x="171.12601"
             y="275.42801"
             rx="2"
             ry="2"
             id="rect20"
             style="fill:#c83771" />
        </g>
      </g>
    </g>
  </g>
</svg>
