<svg xmlns="http://www.w3.org/2000/svg" width="527.034" height="106.133"><g><g style="line-height:125%" font-size="246.044" font-family="Sans" letter-spacing="0" word-spacing="0" transform="translate(-171.126 -274.309)"><path fill="#4d4d4d" d="M271.9 275.8c-1.95 0-3.6 1.64-3.6 3.6v97.45c0 1.95 1.5 3.6 3.44 3.6h30.02c16.45 0 29.9-13.32 29.9-29.9 0-13.16-8.67-24.22-20.48-28.26 5.97-4.8 10-12.12 10-20.34 0-14.5-11.65-26.16-26-26.16H271.9zm3.7 7.33h19.6c10.32 0 18.7 8.37 18.7 18.83 0 10.16-8.38 18.53-18.7 18.53h-1.5v7.47h8.07c12.4 0 22.43 10.16 22.58 22.57-.15 12.56-10.17 22.57-22.58 22.57H275.6V331h-.08v-11.38h.1v-36.5z" style="-inkscape-font-specification:Quicksand" font-family="Quicksand"/><path fill="#4d4d4d" d="M359.03 338.13c0 23.32 16.48 42.3 39.65 42.3 23.46 0 40-18.98 40-42.3V279.4c0-1.95-1.65-3.6-3.74-3.6-1.94 0-3.6 1.65-3.6 3.6v58.73c0 19.28-13.23 34.83-32.66 34.98-19.14-.14-32.33-15.7-32.33-34.97V279.4c0-1.95-1.64-3.6-3.73-3.6-1.95 0-3.6 1.65-3.6 3.6v58.73" style="-inkscape-font-specification:Quicksand" font-family="Quicksand"/><path fill="#4d4d4d" d="M477.3 376.85c0 1.94 1.66 3.58 3.6 3.58 2.1 0 3.74-1.64 3.74-3.58V279.4c0-1.95-1.65-3.6-3.74-3.6-1.94 0-3.6 1.65-3.6 3.6v97.45" style="-inkscape-font-specification:Quicksand" font-family="Quicksand"/><path fill="#4d4d4d" d="M557.02 276.26c-1.5 0-3 .9-3.6 2.24l-36.3 97c-.75 1.8.3 4.04 2.08 4.8.45 0 1.05.14 1.35.14 1.5 0 2.84-.9 3.44-2.4l33.17-88.2 33.03 88.2c.6 1.5 2.1 2.4 3.44 2.4.45 0 .75-.15 1.35-.15 1.78-.76 2.67-3 1.92-4.8l-36.3-97c-.46-1.35-1.96-2.24-3.6-2.24z" style="-inkscape-font-specification:Quicksand" font-family="Quicksand"/><path fill="#4d4d4d" d="M608.53 327.67c0 29.15 24.36 52.76 54.4 52.76 12.86 0 24.67-4.33 33.78-11.36 1.66-1.2 1.96-3.88.46-5.23-1.04-1.8-3.43-2.1-5.23-.9-7.77 6.58-17.93 10.17-29 10.17-26.15 0-47.08-20.47-47.08-45.43 0-25.56 20.93-46.04 47.08-46.04 11.07 0 21.23 3.9 29.3 10.17 1.5 1.2 3.9 1.04 5.08-.75 1.36-1.35 1.06-3.9-.6-5.23-9.1-7.03-20.9-11.5-33.77-11.5-30.04.14-54.4 23.6-54.4 53.35" style="-inkscape-font-specification:Quicksand" font-family="Quicksand"/><rect width="15" height="15" x="236.483" y="275.428" fill="#c83771" ry="2" rx="2"/><rect width="45" height="15" x="171.126" y="275.428" fill="#c83771" rx="2" ry="2"/></g></g></svg>